<svg width="75" height="95" viewBox="0 0 75 95" fill="none" xmlns="http://www.w3.org/2000/svg">
<rect width="75" height="75" rx="5" fill="url(#paint0_linear)"/>
<path d="M14.0001 23.6097H55.2446V57.2186C47.734 69.1968 17.6281 66.1732 14.0001 57.2186V23.6097Z" fill="#4269B3"/>
<path d="M14.0001 35.8304H55.2447C55.2447 35.8304 55.2445 37.3574 55.2447 47.4145C55.2449 57.4716 14.0003 56.3546 14.0001 47.4145C14 38.4743 14.0001 35.8304 14.0001 35.8304Z" fill="#2D97F0"/>
<path d="M14.0001 23.6097H55.2447C55.2447 23.6097 55.2444 25.1367 55.2447 35.1939C55.2449 45.251 14.0003 44.134 14.0001 35.1939C13.9999 26.2537 14.0001 23.6097 14.0001 23.6097Z" fill="#3BB5FE"/>
<ellipse cx="34.6223" cy="23.1642" rx="20.6223" ry="8.08342" fill="#D0F3FA"/>
<path d="M48.4101 40.6L46.4601 41.25L43.3101 39.5L38.9601 43.95L40.7601 47.15L39.9601 49.05L36.4101 49.9V56.1L39.9601 57L40.7601 58.95L38.9101 62.2L43.3101 66.5L46.4601 64.65L48.5101 65.45L49.3601 69H55.6101L56.4101 65.45L58.3601 64.65L61.7101 66.5L66.0101 62.2L64.1601 58.95L64.9601 57L68.4101 56.1V49.9L64.9601 49.05L64.1601 47.15L66.0101 43.95L61.6101 39.5L58.4601 41.25L56.5101 40.6L55.5101 37H49.3601L48.4101 40.6Z" fill="url(#paint1_linear)" stroke="url(#paint2_linear)"/>
<circle cx="52.4601" cy="53" r="9.69999" fill="white"/>
<circle cx="52.4101" cy="52.95" r="8.34999" fill="#26498C"/>
<circle cx="52.5101" cy="53.05" r="5.94999" fill="#8DE1F2"/>
<path d="M19.647 82.7578L22.6685 90.2988L25.6899 82.7578H27.2705V92H26.0518V88.4009L26.166 84.5161L23.1318 92H22.1987L19.1709 84.5352L19.2915 88.4009V92H18.0728V82.7578H19.647ZM33.4785 92C33.4108 91.8646 33.3558 91.6234 33.3135 91.2764C32.7676 91.8434 32.1159 92.127 31.3584 92.127C30.6813 92.127 30.1248 91.9365 29.689 91.5557C29.2573 91.1706 29.0415 90.6839 29.0415 90.0957C29.0415 89.3805 29.3123 88.8262 29.854 88.4326C30.3999 88.0348 31.1659 87.8359 32.1519 87.8359H33.2944V87.2964C33.2944 86.8859 33.1717 86.5601 32.9263 86.3188C32.6808 86.0734 32.319 85.9507 31.8408 85.9507C31.4219 85.9507 31.0706 86.0565 30.7871 86.2681C30.5036 86.4797 30.3618 86.7357 30.3618 87.0361H29.1812C29.1812 86.6934 29.3018 86.3633 29.543 86.0459C29.7884 85.7243 30.1185 85.4704 30.5332 85.2842C30.9521 85.098 31.4113 85.0049 31.9106 85.0049C32.702 85.0049 33.3219 85.2038 33.7705 85.6016C34.2191 85.9951 34.4518 86.5389 34.4688 87.2329V90.394C34.4688 91.0246 34.5492 91.526 34.71 91.8984V92H33.4785ZM31.5298 91.105C31.8979 91.105 32.2471 91.0098 32.5771 90.8193C32.9072 90.6289 33.1463 90.3813 33.2944 90.0767V88.6675H32.374C30.9352 88.6675 30.2158 89.0885 30.2158 89.9307C30.2158 90.2988 30.3385 90.5866 30.584 90.7939C30.8294 91.0013 31.1447 91.105 31.5298 91.105ZM40.3086 90.1782C40.3086 89.8608 40.188 89.6154 39.9468 89.4419C39.7098 89.2642 39.293 89.1118 38.6963 88.9849C38.1038 88.8579 37.632 88.7056 37.2808 88.5278C36.9338 88.3501 36.6756 88.1385 36.5063 87.8931C36.3413 87.6476 36.2588 87.3556 36.2588 87.0171C36.2588 86.4543 36.4958 85.9782 36.9697 85.5889C37.4479 85.1995 38.0573 85.0049 38.7979 85.0049C39.5765 85.0049 40.207 85.2059 40.6895 85.6079C41.1761 86.0099 41.4194 86.5241 41.4194 87.1504H40.2388C40.2388 86.8288 40.1012 86.5516 39.8262 86.3188C39.5553 86.0861 39.2126 85.9697 38.7979 85.9697C38.3704 85.9697 38.0361 86.0628 37.7949 86.249C37.5537 86.4352 37.4331 86.6785 37.4331 86.979C37.4331 87.2625 37.5452 87.4762 37.7695 87.6201C37.9938 87.764 38.3979 87.9015 38.9819 88.0327C39.5701 88.1639 40.0462 88.3205 40.4102 88.5024C40.7741 88.6844 41.0428 88.9045 41.2163 89.1626C41.394 89.4165 41.4829 89.7275 41.4829 90.0957C41.4829 90.7093 41.2375 91.2023 40.7466 91.5747C40.2557 91.9429 39.6188 92.127 38.8359 92.127C38.2858 92.127 37.7992 92.0296 37.376 91.835C36.9528 91.6403 36.6206 91.3695 36.3794 91.0225C36.1424 90.6712 36.0239 90.2925 36.0239 89.8862H37.1982C37.2194 90.2798 37.376 90.5929 37.668 90.8257C37.9642 91.0542 38.3535 91.1685 38.8359 91.1685C39.2803 91.1685 39.6357 91.0796 39.9023 90.9019C40.1732 90.7199 40.3086 90.4787 40.3086 90.1782ZM44.606 83.4688V85.1318H45.8882V86.0396H44.606V90.2988C44.606 90.5739 44.6631 90.7812 44.7773 90.9209C44.8916 91.0563 45.0863 91.124 45.3613 91.124C45.4967 91.124 45.6829 91.0986 45.9199 91.0479V92C45.611 92.0846 45.3105 92.127 45.0186 92.127C44.4938 92.127 44.0981 91.9683 43.8315 91.6509C43.5649 91.3335 43.4316 90.8828 43.4316 90.2988V86.0396H42.1812V85.1318H43.4316V83.4688H44.606ZM50.1157 92.127C49.1847 92.127 48.4272 91.8223 47.8433 91.2129C47.2593 90.5993 46.9673 89.7804 46.9673 88.7563V88.5405C46.9673 87.8592 47.0964 87.252 47.3545 86.7188C47.6169 86.1813 47.9808 85.7624 48.4463 85.4619C48.916 85.1572 49.4238 85.0049 49.9697 85.0049C50.8626 85.0049 51.5566 85.299 52.0518 85.8872C52.5469 86.4754 52.7944 87.3175 52.7944 88.4136V88.9023H48.1416C48.1585 89.5794 48.3553 90.1274 48.7319 90.5464C49.1128 90.9611 49.5952 91.1685 50.1792 91.1685C50.5939 91.1685 50.9451 91.0838 51.2329 90.9146C51.5207 90.7453 51.7725 90.521 51.9883 90.2417L52.7056 90.8003C52.13 91.6847 51.2668 92.127 50.1157 92.127ZM49.9697 85.9697C49.4958 85.9697 49.098 86.1432 48.7764 86.4902C48.4548 86.833 48.2559 87.3154 48.1797 87.9375H51.6201V87.8486C51.5863 87.252 51.4255 86.7907 51.1377 86.4648C50.8499 86.1348 50.4606 85.9697 49.9697 85.9697ZM57.479 86.1855C57.3013 86.1559 57.1087 86.1411 56.9014 86.1411C56.1312 86.1411 55.6086 86.4691 55.3335 87.125V92H54.1592V85.1318H55.3018L55.3208 85.9253C55.7059 85.3117 56.2518 85.0049 56.9585 85.0049C57.187 85.0049 57.3605 85.0345 57.479 85.0938V86.1855Z" fill="#453F3F"/>
<defs>
<linearGradient id="paint0_linear" x1="38" y1="162" x2="38" y2="-26.5" gradientUnits="userSpaceOnUse">
<stop stop-color="#5BBFFB"/>
<stop offset="0.911458" stop-color="white" stop-opacity="0"/>
</linearGradient>
<linearGradient id="paint1_linear" x1="52.4101" y1="37" x2="68" y2="102.5" gradientUnits="userSpaceOnUse">
<stop stop-color="white"/>
<stop offset="1" stop-color="#0076B6" stop-opacity="0"/>
</linearGradient>
<linearGradient id="paint2_linear" x1="35.9727" y1="40.7333" x2="67.9727" y2="69" gradientUnits="userSpaceOnUse">
<stop stop-color="white"/>
<stop offset="1" stop-color="white" stop-opacity="0"/>
</linearGradient>
</defs>
</svg>
