<svg width="75" height="95" viewBox="0 0 75 95" fill="none" xmlns="http://www.w3.org/2000/svg">
<rect width="75" height="75" rx="5" fill="url(#paint0_linear)"/>
<path d="M9.20597 50.9138C9.78511 48.5356 9.6572 47.3453 8.30137 45.5722L34.1803 8.98729C36.4273 9.85884 37.4837 9.55109 39.1493 8.1458L53.9239 18.4224C53.0767 20.7357 53.4064 21.8468 54.8075 23.6399L28.9285 60.2248C26.4986 59.4547 25.2923 59.5338 23.5869 61.1294L9.20597 50.9138Z" fill="#0D4386" stroke="url(#paint1_linear)"/>
<path d="M12.1278 46.3442L35.1688 13.3064C36.318 13.908 37.6407 14.0943 38.8744 12.5609L49.3692 20.0883C48.6341 21.6638 48.7247 23.1719 50.0423 24.0634L27.7306 56.1855C25.7528 55.2982 24.2458 55.4473 22.8885 57.0055L12.7355 49.9327C13.423 48.6635 13.1366 47.4079 12.1278 46.3442Z" fill="url(#paint2_linear)"/>
<path d="M22.932 41.1875L21.9885 42.3849L25.2451 44.9509L24.6105 45.7563L21.3539 43.1903L20.4232 44.3716L19.7708 43.8576L22.2796 40.6735L22.932 41.1875ZM27.2272 42.4353L26.5926 43.2407L22.6836 40.1607L23.3182 39.3553L27.2272 42.4353ZM27.2141 39.2266L27.3352 40.0008L28.452 40.8808L27.8174 41.6862L23.9084 38.6063L24.543 37.8009L26.315 39.197L26.1083 38.4597L25.6071 36.4504L26.3876 35.4598L27.031 38.2164L30.3283 38.4995L29.5731 39.4579L27.2141 39.2266ZM30.7264 34.5095L29.5079 36.0559L30.555 36.8809L31.9849 35.066L32.632 35.5758L30.5674 38.1961L26.6584 35.1161L28.7188 32.5012L29.3712 33.0153L27.9454 34.8248L28.877 35.5588L30.0955 34.0124L30.7264 34.5095ZM32.1084 29.5412L31.165 30.7386L34.4216 33.3045L33.787 34.11L30.5304 31.544L29.5996 32.7253L28.9472 32.2113L31.4561 29.0272L32.1084 29.5412Z" fill="#26498C"/>
<circle opacity="0.7" cx="38.4043" cy="27.0034" r="2.66757" transform="rotate(-59.7632 38.4043 27.0034)" fill="#F9F9F9"/>
<circle opacity="0.7" cx="35.9614" cy="22.4919" r="1.52433" transform="rotate(-59.7632 35.9614 22.4919)" fill="#F9F9F9"/>
<path d="M15.7782 51.4419C17.2965 49.522 17.6767 48.3868 17.1841 46.2098L55.964 23.7534C57.6426 25.4827 58.7312 25.6437 60.8311 25.0612L69.9727 40.5637C68.2379 42.3128 68.0741 43.4601 68.5996 45.6742L29.8196 68.1305C27.9324 66.4172 26.803 65.9859 24.5875 66.7247L15.7782 51.4419Z" fill="#0E5EC1" fill-opacity="0.8" stroke="url(#paint3_linear)"/>
<path d="M20.3398 48.5074L55.0609 28.0912C55.8544 29.1172 56.9788 29.8382 58.7397 28.9592L65.1383 40.1779C63.8131 41.3032 63.2664 42.7116 64.0921 44.0715L30.4156 63.9597C28.9882 62.3284 27.5564 61.8352 25.6729 62.6853L19.3953 52.0223C20.5495 51.1555 20.8129 49.8949 20.3398 48.5074Z" fill="url(#paint4_linear)"/>
<path d="M33.9876 48.9444L32.6464 49.6691L34.6175 53.3166L33.7154 53.8041L31.7443 50.1566L30.4213 50.8716L30.0264 50.1409L33.5927 48.2137L33.9876 48.9444ZM37.4351 51.7941L36.533 52.2815L34.167 47.9033L35.0691 47.4159L37.4351 51.7941ZM38.6962 48.8436L38.5001 49.6023L39.1761 50.8532L38.274 51.3407L35.9081 46.9625L36.8102 46.475L37.8827 48.4596L37.9855 47.7009L38.3227 45.6577L39.4323 45.0581L38.929 47.8437L41.8433 49.4119L40.7698 49.992L38.6962 48.8436ZM43.7919 45.9074L42.0599 46.8433L42.6936 48.0161L44.7263 46.9176L45.118 47.6423L42.1831 49.2282L39.8172 44.8501L42.746 43.2674L43.1409 43.9981L41.1142 45.0933L41.678 46.1367L43.41 45.2007L43.7919 45.9074ZM47.0319 41.8954L45.6908 42.6201L47.6619 46.2676L46.7598 46.7551L44.7887 43.1076L43.4656 43.8226L43.0708 43.0919L46.6371 41.1647L47.0319 41.8954Z" fill="#26498C"/>
<circle cx="52.2884" cy="41.8893" r="2.66757" transform="rotate(-35.1114 52.2884 41.8893)" fill="#F9F9F9" fill-opacity="0.7"/>
<circle cx="51.9499" cy="36.77" r="1.52433" transform="rotate(-35.1114 51.9499 36.77)" fill="#F9F9F9" fill-opacity="0.7"/>
<path d="M27.4585 83.7607H24.4878V92H23.2754V83.7607H20.311V82.7578H27.4585V83.7607ZM29.9214 92H28.7471V85.1318H29.9214V92ZM28.6519 83.3101C28.6519 83.1196 28.709 82.9588 28.8232 82.8276C28.9417 82.6965 29.1152 82.6309 29.3438 82.6309C29.5723 82.6309 29.7458 82.6965 29.8643 82.8276C29.9827 82.9588 30.042 83.1196 30.042 83.3101C30.042 83.5005 29.9827 83.6592 29.8643 83.7861C29.7458 83.9131 29.5723 83.9766 29.3438 83.9766C29.1152 83.9766 28.9417 83.9131 28.8232 83.7861C28.709 83.6592 28.6519 83.5005 28.6519 83.3101ZM33.7236 88.8198L32.9873 89.5879V92H31.813V82.25H32.9873V88.147L33.6157 87.3916L35.7549 85.1318H37.1831L34.5107 88.001L37.4941 92H36.1167L33.7236 88.8198ZM41.1187 92.127C40.1877 92.127 39.4302 91.8223 38.8462 91.2129C38.2622 90.5993 37.9702 89.7804 37.9702 88.7563V88.5405C37.9702 87.8592 38.0993 87.252 38.3574 86.7188C38.6198 86.1813 38.9837 85.7624 39.4492 85.4619C39.9189 85.1572 40.4268 85.0049 40.9727 85.0049C41.8656 85.0049 42.5596 85.299 43.0547 85.8872C43.5498 86.4754 43.7974 87.3175 43.7974 88.4136V88.9023H39.1445C39.1615 89.5794 39.3582 90.1274 39.7349 90.5464C40.1157 90.9611 40.5981 91.1685 41.1821 91.1685C41.5968 91.1685 41.9481 91.0838 42.2358 90.9146C42.5236 90.7453 42.7754 90.521 42.9912 90.2417L43.7085 90.8003C43.133 91.6847 42.2697 92.127 41.1187 92.127ZM40.9727 85.9697C40.4987 85.9697 40.1009 86.1432 39.7793 86.4902C39.4577 86.833 39.2588 87.3154 39.1826 87.9375H42.623V87.8486C42.5892 87.252 42.4284 86.7907 42.1406 86.4648C41.8529 86.1348 41.4635 85.9697 40.9727 85.9697ZM46.7554 83.4688V85.1318H48.0376V86.0396H46.7554V90.2988C46.7554 90.5739 46.8125 90.7812 46.9268 90.9209C47.041 91.0563 47.2357 91.124 47.5107 91.124C47.6462 91.124 47.8324 91.0986 48.0693 91.0479V92C47.7604 92.0846 47.46 92.127 47.168 92.127C46.6432 92.127 46.2476 91.9683 45.981 91.6509C45.7144 91.3335 45.5811 90.8828 45.5811 90.2988V86.0396H44.3306V85.1318H45.5811V83.4688H46.7554Z" fill="#453F3F"/>
<defs>
<linearGradient id="paint0_linear" x1="38" y1="162" x2="38" y2="-26.5" gradientUnits="userSpaceOnUse">
<stop stop-color="#5BBFFB"/>
<stop offset="0.911458" stop-color="white" stop-opacity="0"/>
</linearGradient>
<linearGradient id="paint1_linear" x1="14.5" y1="10.5" x2="35.6988" y2="59.0782" gradientUnits="userSpaceOnUse">
<stop stop-color="white"/>
<stop offset="1" stop-color="white" stop-opacity="0"/>
</linearGradient>
<linearGradient id="paint2_linear" x1="23.5701" y1="29.7437" x2="67.5" y2="71" gradientUnits="userSpaceOnUse">
<stop stop-color="white"/>
<stop offset="1" stop-color="#79C5EC" stop-opacity="0"/>
</linearGradient>
<linearGradient id="paint3_linear" x1="26.5" y1="29" x2="15.5" y2="96.5" gradientUnits="userSpaceOnUse">
<stop stop-color="white"/>
<stop offset="1" stop-color="white" stop-opacity="0"/>
</linearGradient>
<linearGradient id="paint4_linear" x1="37.6633" y1="38.1925" x2="68.5" y2="88.5" gradientUnits="userSpaceOnUse">
<stop stop-color="white"/>
<stop offset="1" stop-color="#DADBDB" stop-opacity="0"/>
</linearGradient>
</defs>
</svg>
