<svg width="73" height="68" viewBox="0 0 73 68" fill="none" xmlns="http://www.w3.org/2000/svg">
<rect y="3.05176e-05" width="73" height="68" rx="5" fill="white"/>
<path d="M53.9466 30.434H31.6597V21.1195C31.6597 17.5419 34.5085 14.5695 38.0672 14.5334C41.6619 14.4973 44.6005 17.4335 44.6005 21.0382V22.4837C44.6005 23.6853 45.5621 24.652 46.7573 24.652H49.633C50.8283 24.652 51.7898 23.6853 51.7898 22.4837V21.0382C51.7898 13.4493 45.634 7.27872 38.0852 7.30582C30.5364 7.33293 24.4704 13.5848 24.4704 21.1737V30.434H22.3136C19.9321 30.434 18 32.3764 18 34.7706C18 34.7706 18 49.6464 18 51.9715C18 54.2965 18 59.4361 26.8719 62.4954C35.7439 65.5547 40.5726 66.3427 49.633 62.4954C58.6935 58.6482 58.2602 54.3656 58.2602 51.9715V34.7706C58.2602 32.3764 56.3281 30.434 53.9466 30.434ZM41.7248 39.8299C41.7248 41.8265 40.1162 43.4054 38.1301 43.4054C36.1441 43.4054 34.5355 41.8265 34.5355 39.8299C34.5355 37.8333 36.1441 36.2161 38.1301 36.2161C40.1162 36.2161 41.7248 37.8333 41.7248 39.8299Z" fill="url(#paint0_linear)"/>
<path d="M35.4745 41.8146H40.888L43.025 51.3596H33.48L35.4745 41.8146Z" fill="white"/>
<defs>
<linearGradient id="paint0_linear" x1="38.1318" y1="7.30573" x2="38.1301" y2="98.3503" gradientUnits="userSpaceOnUse">
<stop stop-color="#029BF6"/>
<stop offset="1" stop-color="#26498C"/>
</linearGradient>
</defs>
</svg>
