<svg width="56" height="35" viewBox="0 0 56 35" fill="none" xmlns="http://www.w3.org/2000/svg">
<rect x="0.0909424" width="55" height="35" rx="10" fill="#0C5CBF"/>
<path d="M25.8643 9.2666L26.9482 8.18262C27.4072 7.72363 28.1494 7.72363 28.6035 8.18262L38.0957 17.6699C38.5547 18.1289 38.5547 18.8711 38.0957 19.3252L28.6035 28.8174C28.1445 29.2764 27.4023 29.2764 26.9482 28.8174L25.8643 27.7334C25.4004 27.2695 25.4102 26.5127 25.8838 26.0586L31.7676 20.4531H17.7344C17.085 20.4531 16.5625 19.9307 16.5625 19.2813V17.7188C16.5625 17.0693 17.085 16.5469 17.7344 16.5469H31.7676L25.8838 10.9414C25.4053 10.4873 25.3955 9.73047 25.8643 9.2666Z" fill="white"/>
</svg>
