<svg width="73" height="68" viewBox="0 0 73 68" fill="none" xmlns="http://www.w3.org/2000/svg">
<rect width="73" height="68" rx="5" fill="white"/>
<path d="M9.74249 41.4831L11.6781 38.3563C13.8009 39.5944 15.0417 39.5616 17.3361 38.3563L18.974 41.3342C16.108 46.4807 13.7263 47.0313 9.74249 41.4831Z" fill="#FDD2B9"/>
<path d="M14.5072 43.4187C12.7204 43.4187 11.5509 43.2718 10.0403 41.1853C3.66195 42.5869 2.08874 44.6275 2 49.9701V54.8836C4.63624 57.0116 10.4788 57.9743 22.3986 57.2659C21.9037 47.638 22.5092 44.5615 24.3342 42.972C22.6137 42.0762 21.828 41.4917 18.8251 41.1853C17.1325 42.7314 16.2939 43.4187 14.5072 43.4187Z" fill="#0B5EE8"/>
<path d="M20.9096 30.6738C20.9096 34.7563 17.8028 39.8453 14.4258 39.8453C11.0488 39.8453 7.80688 34.7563 7.80688 30.6738C7.80688 26.5914 10.3973 22.8713 14.4258 22.8713C18.4543 22.8713 20.9096 26.5914 20.9096 30.6738Z" fill="#FDD2B9"/>
<path d="M6.53069 31.3827C6.79782 32.1664 7.65946 32.9632 8.23409 32.7673C8.80872 32.5715 9.02737 31.4065 8.76024 30.6228C8.49312 29.839 7.80892 29.2751 7.12343 29.5087C6.43793 29.7424 6.26356 30.5989 6.53069 31.3827Z" fill="#FDD2B9"/>
<path d="M22.2503 31.0849C21.9832 31.8686 21.1215 32.6654 20.5469 32.4696C19.9723 32.2737 19.7536 31.1087 20.0208 30.325C20.2879 29.5412 20.9721 28.9773 21.6576 29.2109C22.3431 29.4446 22.5174 30.3012 22.2503 31.0849Z" fill="#FDD2B9"/>
<path d="M17.485 38.5052C15.1733 39.9584 13.8708 40.1009 11.5292 38.5052C11.5292 38.5052 13.022 40.2919 14.7324 40.143C16.4428 39.9941 17.485 38.5052 17.485 38.5052Z" fill="#DB9A75"/>
<path d="M8.38398 32.6983L7.40084 28.5698H6.66349L6.86011 27.987L6.46686 27.5498L6.86011 26.6756L6.46686 26.4327L6.66349 25.8013L7.05674 25.3156V24.927L7.69578 24.1985V23.567C11.2771 18.2383 19.9865 18.9015 20.6732 24.2956C22.6361 24.9006 22.0992 27.4725 20.6732 32.6983C20.4924 30.7779 20.4083 29.6822 19.4935 28.5698C19.755 27.5325 19.8085 26.9296 18.6086 25.5584C17.2821 25.9379 16.3464 26.0553 14.4303 26.1413C12.6681 27.2615 11.4206 27.4636 9.36712 27.987C8.83298 28.4253 8.62442 28.7274 8.38398 29.3469V32.6983Z" fill="#4B3C39"/>
<path d="M62.7491 41.1853L60.8135 38.0585C58.6907 39.2966 57.4498 39.2638 55.1555 38.0585L53.5176 41.0364C56.3836 46.183 58.7653 46.7336 62.7491 41.1853Z" fill="#FDD2B9"/>
<path d="M57.9844 43.1209C59.7712 43.1209 60.9406 42.9741 62.4513 40.8875C68.8296 42.2891 70.4028 44.3297 70.4916 49.6723V54.5858C67.8553 56.7138 62.0128 57.6766 50.093 56.9681C50.5879 47.3402 49.9824 44.2637 48.1574 42.6743C49.8779 41.7784 50.6635 41.1939 53.6665 40.8875C55.359 42.4336 56.1977 43.1209 57.9844 43.1209Z" fill="#029BF6"/>
<path d="M51.582 30.376C51.582 34.4585 54.6888 39.5475 58.0658 39.5475C61.4428 39.5475 64.6847 34.4585 64.6847 30.376C64.6847 26.2936 62.0943 22.5735 58.0658 22.5735C54.0372 22.5735 51.582 26.2936 51.582 30.376Z" fill="#FDD2B9"/>
<path d="M65.9609 31.0849C65.6938 31.8686 64.8321 32.6654 64.2575 32.4696C63.6829 32.2737 63.4642 31.1087 63.7313 30.325C63.9985 29.5412 64.6827 28.9773 65.3682 29.2109C66.0536 29.4446 66.228 30.3012 65.9609 31.0849Z" fill="#FDD2B9"/>
<path d="M50.2413 30.7871C50.5084 31.5708 51.37 32.3676 51.9447 32.1718C52.5193 31.9759 52.7379 30.8109 52.4708 30.0272C52.2037 29.2434 51.5195 28.6795 50.834 28.9131C50.1485 29.1468 49.9741 30.0034 50.2413 30.7871Z" fill="#FDD2B9"/>
<path d="M55.0066 38.2074C57.3182 39.6606 58.6208 39.8032 60.9623 38.2074C60.9623 38.2074 59.4696 39.9942 57.7592 39.8453C56.0488 39.6964 55.0066 38.2074 55.0066 38.2074Z" fill="#DB9A75"/>
<path d="M29.3748 21.7492C31.1471 18.2939 40.7465 17.8792 42.6664 21.7492C44.5862 25.6191 44.8817 38.6111 44.8817 38.6111C44.4707 41.6265 26.8758 41.4315 26.7165 38.0582C26.7165 38.0582 27.6026 25.2044 29.3748 21.7492Z" fill="#363636"/>
<path d="M31.3322 41.1853L33.2678 38.0585C35.3906 39.2966 36.6315 39.2638 38.9258 38.0585L40.5637 41.0364C37.6977 46.183 35.316 46.7336 31.3322 41.1853Z" fill="#FDD2B9"/>
<path d="M36.3947 48.7789L31.63 40.8875C25.2517 42.2892 23.6785 44.3297 23.5897 49.6723V56.9682C33.9751 59.8395 39.4992 59.51 49.0507 56.9682V49.6723C49.0507 43.8654 46.963 41.544 40.4148 40.8875L36.3947 48.7789Z" fill="#0BB2E8"/>
<path d="M42.4993 30.376C42.4993 34.4585 39.3925 39.5475 36.0155 39.5475C32.6385 39.5475 29.3966 34.4585 29.3966 30.376C29.3966 26.2936 31.987 22.5735 36.0155 22.5735C40.0441 22.5735 42.4993 26.2936 42.4993 30.376Z" fill="#FDD2B9"/>
<path d="M28.1204 31.0849C28.3875 31.8686 29.2492 32.6654 29.8238 32.4696C30.3984 32.2737 30.6171 31.1087 30.35 30.325C30.0828 29.5412 29.3986 28.9773 28.7131 29.2109C28.0277 29.4446 27.8533 30.3012 28.1204 31.0849Z" fill="#FDD2B9"/>
<path d="M43.84 30.7871C43.5729 31.5708 42.7113 32.3676 42.1366 32.1718C41.562 31.9759 41.3434 30.8109 41.6105 30.0272C41.8776 29.2434 42.5618 28.6795 43.2473 28.9131C43.9328 29.1468 44.1072 30.0034 43.84 30.7871Z" fill="#FDD2B9"/>
<path d="M39.0747 38.2074C36.7631 39.6606 35.4605 39.8032 33.119 38.2074C33.119 38.2074 34.6117 39.9942 36.3221 39.8453C38.0325 39.6964 39.0747 38.2074 39.0747 38.2074Z" fill="#DB9A75"/>
<path d="M29.8433 32.5494L28.9499 27.0403C33.1227 20.9891 39.8192 19.4467 43.8394 28.5293C42.4625 29.1849 41.6178 29.0535 38.4792 24.5091C36.8413 25.2536 33.4167 23.9135 33.1189 27.0403C32.8212 30.1672 29.8433 32.5494 29.8433 32.5494Z" fill="#363636"/>
<path d="M64.1076 32.1028L65.0907 27.9742H65.8281L65.6315 27.3914L66.0247 26.9543L65.6315 26.08L66.0247 25.8371L65.8281 25.2057L65.4348 24.72V24.3315L64.7958 23.6029V22.9715C61.2145 17.6427 52.5051 18.3059 51.8183 23.7C49.8555 24.305 50.3924 26.8769 51.8183 32.1028C51.9992 30.1823 52.0833 29.0866 52.9981 27.9742C52.7366 26.9369 52.6831 26.3341 53.8829 24.9629C55.2095 25.3423 56.1452 25.4597 58.0613 25.5457C59.8235 26.6659 61.071 26.868 63.1245 27.3914C63.6586 27.8297 63.8672 28.1319 64.1076 28.7514V32.1028Z" fill="#4B3C39"/>
</svg>
