<svg width="75" height="95" viewBox="0 0 75 95" fill="none" xmlns="http://www.w3.org/2000/svg">
<rect width="75" height="75" rx="5" fill="url(#paint0_linear)"/>
<path d="M7.80273 87.8804C6.75749 87.5799 5.99577 87.2118 5.51758 86.7759C5.04362 86.3358 4.80664 85.7941 4.80664 85.1509C4.80664 84.423 5.09652 83.8221 5.67627 83.3481C6.26025 82.87 7.01774 82.6309 7.94873 82.6309C8.5835 82.6309 9.14844 82.7536 9.64355 82.999C10.1429 83.2445 10.528 83.583 10.7988 84.0146C11.0739 84.4463 11.2114 84.9181 11.2114 85.4302H9.98633C9.98633 84.8716 9.80859 84.4336 9.45312 84.1162C9.09766 83.7946 8.59619 83.6338 7.94873 83.6338C7.34782 83.6338 6.87809 83.7671 6.53955 84.0337C6.20524 84.2961 6.03809 84.6621 6.03809 85.1318C6.03809 85.5085 6.19678 85.828 6.51416 86.0903C6.83577 86.3485 7.37956 86.5854 8.14551 86.8013C8.91569 87.0171 9.5166 87.2562 9.94824 87.5186C10.3841 87.7767 10.7057 88.0793 10.9131 88.4263C11.1247 88.7733 11.2305 89.1816 11.2305 89.6514C11.2305 90.4004 10.9385 91.0013 10.3545 91.4541C9.77051 91.9027 8.98975 92.127 8.01221 92.127C7.37744 92.127 6.78499 92.0063 6.23486 91.7651C5.68473 91.5197 5.25944 91.1854 4.95898 90.7622C4.66276 90.339 4.51465 89.8587 4.51465 89.3213H5.73975C5.73975 89.8799 5.94499 90.3221 6.35547 90.6479C6.77018 90.9696 7.32243 91.1304 8.01221 91.1304C8.65544 91.1304 9.14844 90.9992 9.49121 90.7368C9.83398 90.4744 10.0054 90.1169 10.0054 89.6641C10.0054 89.2113 9.84668 88.8621 9.5293 88.6167C9.21191 88.367 8.63639 88.1216 7.80273 87.8804ZM15.4644 92.127C14.5334 92.127 13.7759 91.8223 13.1919 91.2129C12.6079 90.5993 12.3159 89.7804 12.3159 88.7563V88.5405C12.3159 87.8592 12.445 87.252 12.7031 86.7188C12.9655 86.1813 13.3294 85.7624 13.7949 85.4619C14.2646 85.1572 14.7725 85.0049 15.3184 85.0049C16.2113 85.0049 16.9053 85.299 17.4004 85.8872C17.8955 86.4754 18.1431 87.3175 18.1431 88.4136V88.9023H13.4902C13.5072 89.5794 13.7039 90.1274 14.0806 90.5464C14.4614 90.9611 14.9438 91.1685 15.5278 91.1685C15.9425 91.1685 16.2938 91.0838 16.5815 90.9146C16.8693 90.7453 17.1211 90.521 17.3369 90.2417L18.0542 90.8003C17.4787 91.6847 16.6154 92.127 15.4644 92.127ZM15.3184 85.9697C14.8444 85.9697 14.4466 86.1432 14.125 86.4902C13.8034 86.833 13.6045 87.3154 13.5283 87.9375H16.9688V87.8486C16.9349 87.252 16.7741 86.7907 16.4863 86.4648C16.1986 86.1348 15.8092 85.9697 15.3184 85.9697ZM19.2285 88.5088C19.2285 87.4382 19.4761 86.5876 19.9712 85.957C20.4663 85.3223 21.1222 85.0049 21.939 85.0049C22.7769 85.0049 23.4307 85.3011 23.9004 85.8936L23.9575 85.1318H25.0303V91.835C25.0303 92.7236 24.7658 93.424 24.2368 93.936C23.7121 94.4481 23.0054 94.7041 22.1167 94.7041C21.6216 94.7041 21.137 94.5983 20.6631 94.3867C20.1891 94.1751 19.8273 93.8853 19.5776 93.5171L20.187 92.8125C20.6906 93.4346 21.3063 93.7456 22.0342 93.7456C22.6055 93.7456 23.0498 93.5848 23.3672 93.2632C23.6888 92.9416 23.8496 92.4888 23.8496 91.9048V91.3145C23.3799 91.8561 22.7388 92.127 21.9263 92.127C21.1222 92.127 20.4705 91.8032 19.9712 91.1558C19.4761 90.5083 19.2285 89.626 19.2285 88.5088ZM20.4092 88.6421C20.4092 89.4165 20.5679 90.0259 20.8853 90.4702C21.2026 90.9103 21.647 91.1304 22.2183 91.1304C22.9588 91.1304 23.5026 90.7939 23.8496 90.1211V86.9854C23.4899 86.3294 22.9504 86.0015 22.231 86.0015C21.6597 86.0015 21.2132 86.2236 20.8916 86.668C20.57 87.1123 20.4092 87.7703 20.4092 88.6421ZM29.6577 92.127C28.7267 92.127 27.9692 91.8223 27.3853 91.2129C26.8013 90.5993 26.5093 89.7804 26.5093 88.7563V88.5405C26.5093 87.8592 26.6383 87.252 26.8965 86.7188C27.1589 86.1813 27.5228 85.7624 27.9883 85.4619C28.458 85.1572 28.9658 85.0049 29.5117 85.0049C30.4046 85.0049 31.0986 85.299 31.5938 85.8872C32.0889 86.4754 32.3364 87.3175 32.3364 88.4136V88.9023H27.6836C27.7005 89.5794 27.8973 90.1274 28.2739 90.5464C28.6548 90.9611 29.1372 91.1685 29.7212 91.1685C30.1359 91.1685 30.4871 91.0838 30.7749 90.9146C31.0627 90.7453 31.3145 90.521 31.5303 90.2417L32.2476 90.8003C31.672 91.6847 30.8088 92.127 29.6577 92.127ZM29.5117 85.9697C29.0378 85.9697 28.64 86.1432 28.3184 86.4902C27.9967 86.833 27.7979 87.3154 27.7217 87.9375H31.1621V87.8486C31.1283 87.252 30.9674 86.7907 30.6797 86.4648C30.3919 86.1348 30.0026 85.9697 29.5117 85.9697ZM34.9771 92H33.8027V82.25H34.9771V92ZM41.8452 82.7578L44.8667 90.2988L47.8882 82.7578H49.4688V92H48.25V88.4009L48.3643 84.5161L45.3301 92H44.397L41.3691 84.5352L41.4897 88.4009V92H40.271V82.7578H41.8452ZM54.2866 92.127C53.3556 92.127 52.5981 91.8223 52.0142 91.2129C51.4302 90.5993 51.1382 89.7804 51.1382 88.7563V88.5405C51.1382 87.8592 51.2673 87.252 51.5254 86.7188C51.7878 86.1813 52.1517 85.7624 52.6172 85.4619C53.0869 85.1572 53.5947 85.0049 54.1406 85.0049C55.0335 85.0049 55.7275 85.299 56.2227 85.8872C56.7178 86.4754 56.9653 87.3175 56.9653 88.4136V88.9023H52.3125C52.3294 89.5794 52.5262 90.1274 52.9028 90.5464C53.2837 90.9611 53.7661 91.1685 54.3501 91.1685C54.7648 91.1685 55.116 91.0838 55.4038 90.9146C55.6916 90.7453 55.9434 90.521 56.1592 90.2417L56.8765 90.8003C56.3009 91.6847 55.4377 92.127 54.2866 92.127ZM54.1406 85.9697C53.6667 85.9697 53.2689 86.1432 52.9473 86.4902C52.6257 86.833 52.4268 87.3154 52.3506 87.9375H55.791V87.8486C55.7572 87.252 55.5964 86.7907 55.3086 86.4648C55.0208 86.1348 54.6315 85.9697 54.1406 85.9697ZM59.9233 83.4688V85.1318H61.2056V86.0396H59.9233V90.2988C59.9233 90.5739 59.9805 90.7812 60.0947 90.9209C60.209 91.0563 60.4036 91.124 60.6787 91.124C60.8141 91.124 61.0003 91.0986 61.2373 91.0479V92C60.9284 92.0846 60.6279 92.127 60.3359 92.127C59.8112 92.127 59.4155 91.9683 59.1489 91.6509C58.8823 91.3335 58.749 90.8828 58.749 90.2988V86.0396H57.4985V85.1318H58.749V83.4688H59.9233ZM65.4331 92.127C64.5021 92.127 63.7446 91.8223 63.1606 91.2129C62.5767 90.5993 62.2847 89.7804 62.2847 88.7563V88.5405C62.2847 87.8592 62.4137 87.252 62.6719 86.7188C62.9342 86.1813 63.2982 85.7624 63.7637 85.4619C64.2334 85.1572 64.7412 85.0049 65.2871 85.0049C66.18 85.0049 66.874 85.299 67.3691 85.8872C67.8643 86.4754 68.1118 87.3175 68.1118 88.4136V88.9023H63.459C63.4759 89.5794 63.6727 90.1274 64.0493 90.5464C64.4302 90.9611 64.9126 91.1685 65.4966 91.1685C65.9113 91.1685 66.2625 91.0838 66.5503 90.9146C66.8381 90.7453 67.0898 90.521 67.3057 90.2417L68.0229 90.8003C67.4474 91.6847 66.5841 92.127 65.4331 92.127ZM65.2871 85.9697C64.8132 85.9697 64.4154 86.1432 64.0938 86.4902C63.7721 86.833 63.5732 87.3154 63.4971 87.9375H66.9375V87.8486C66.9036 87.252 66.7428 86.7907 66.4551 86.4648C66.1673 86.1348 65.778 85.9697 65.2871 85.9697ZM72.7964 86.1855C72.6187 86.1559 72.4261 86.1411 72.2188 86.1411C71.4486 86.1411 70.9259 86.4691 70.6509 87.125V92H69.4766V85.1318H70.6191L70.6382 85.9253C71.0233 85.3117 71.5692 85.0049 72.2759 85.0049C72.5044 85.0049 72.6779 85.0345 72.7964 85.0938V86.1855Z" fill="#453F3F"/>
<path d="M12.6245 64.0926C11.3906 64.5039 8.7685 56.1748 10.6708 55.3522L14.0641 54.4782L14.4754 54.8895L16.4806 62.1903L16.1721 63.2185L12.6245 64.0926Z" fill="black" stroke="black"/>
<path d="M63.113 50.6222C65.2724 49.4396 63.0808 42.1569 61.0399 42.518L57.7263 43.6576L57.6095 44.2274L59.9572 51.4254L60.8508 51.1363L63.113 50.6222Z" fill="black" stroke="black"/>
<path d="M16.6348 63.5271C14.9896 63.5271 13.1901 55.0952 14.167 53.2957L23.3701 50.9307L52.1619 44.0412L57.3547 42.653C60.2853 41.8304 62.5475 51.7533 60.0796 52.2674L51.6477 54.324L49.5397 57.9229C47.3804 68.0515 34.1156 70.108 26.969 61.3677L16.6348 63.5271Z" fill="#0E398A"/>
<path d="M51.1336 56.2263C51.8554 55.2207 52.9845 52.216 52.8816 49.1311C41.0368 59.1694 29.2114 47.2345 25 43.5C24.2713 42.8538 23.4729 46.2005 23.4729 46.2005C23 49 23.3891 51.5735 23.5 52C26.5334 63.671 43.6786 66.6119 51.1336 56.2263Z" fill="#189FE5"/>
<path d="M24.8097 46.8175L24 47.5C23.8732 47.4221 24 46.5 24.604 43.4242L24.8097 46.8175Z" fill="#000923"/>
<path d="M26.491 51.545C25.0544 47.7939 25.1264 44.1969 25 39L53.4319 40.491C52.905 44.6985 52.8093 46.2792 52.0951 49.1285C48.0334 62.599 29.2674 58.7944 26.491 51.545Z" fill="#189FE5"/>
<ellipse cx="38.897" cy="38.18" rx="14.5501" ry="10.7455" fill="#012849"/>
<path d="M26 54.5C26 54.3972 27.2261 53.6556 27.3803 53.6556C31.3906 57.2546 33.8071 57.544 37.9202 58.0258C38.2801 58.0679 38.1259 60.3197 37.8174 60.288C31.9753 59.6864 28.982 58.2532 26 54.5Z" fill="#000923"/>
<path d="M37.8174 60.288L37.9716 58.0258C42.6808 58.143 44.5398 57.1873 47.6374 55.198L48.1001 57.6145C44.3634 59.711 42.1207 60.3301 37.8174 60.288Z" fill="#000923"/>
<path d="M23.9356 47.2288L24.8096 46.8175C25.221 49.9023 25.6323 51.3933 27.3289 53.6556L26 54.5C24.1491 52.0835 23.9356 49.8509 23.9356 47.2288Z" fill="#000923"/>
<ellipse cx="54" cy="24" rx="10" ry="14" fill="#012849"/>
<path d="M64 23.9762C64 31.8001 59.9016 38 54.6549 38C49.4082 38 45 31.8001 45 23.9762C45 16.1524 48.4272 10 53.6739 10C58.9206 10 64 16.1524 64 23.9762Z" fill="#003F74"/>
<path d="M48.7171 38.1286C48.7171 41.7064 44.1824 44.6067 38.5886 44.6067C32.9947 44.6067 28.46 41.7064 28.46 38.1286C28.46 34.5508 32.7377 30.725 38.3315 30.725C45.7865 30.5707 48.7171 34.5508 48.7171 38.1286Z" fill="white"/>
<path d="M28.3572 38.4885C29.292 27.9407 49.1799 28.5656 48.7171 38.6427C52.5218 25.4808 25.4266 24.5039 28.3572 38.4885Z" fill="#D0F2FA"/>
<path d="M56.6168 57.6908V57.6999V57.7089V57.7179V57.7268V57.7356V57.7444V57.7531V57.7617V57.7703V57.7788V57.7873V57.7957V57.804V57.8123V57.8205V57.8287V57.8368V57.8449V57.8529V57.8608V57.8687V57.8766V57.8843V57.8921V57.8997V57.9074V57.9149V57.9225V57.9299V57.9374V57.9447V57.9521V57.9594V57.9666V57.9738V57.9809V57.988V57.9951V58.0021V58.009V58.0159V58.0228V58.0296V58.0364V58.0432V58.0499V58.0566V58.0632V58.0698V58.0764V58.0829V58.0894V58.0958V58.1022V58.1086V58.1149V58.1212V58.1275V58.1338V58.14V58.1461V58.1523V58.1584V58.1645V58.1705V58.1766V58.1826V58.1885V58.1945V58.2004V58.2063V58.2122V58.218V58.2238V58.2296V58.2354V58.2411V58.2469V58.2526V58.2583V58.2639V58.2696V58.2752V58.2808V58.2864V58.292V58.2975V58.3031V58.3086V58.3141V58.3196V58.3251V58.3306V58.336V58.3415V58.3469V58.3523V58.3577V58.3631V58.3685V58.3739V58.3793V58.3847V58.39V58.3954V58.4007V58.4061V58.4114V58.4167V58.4221V58.4274V58.4327V58.4381V58.4434V58.4487V58.454V58.4594V58.4647V58.47V58.4754V58.4807V58.486V58.4914V58.4967V58.5021V58.5074V58.5128V58.5182V58.5235V58.5289V58.5343V58.5397V58.5451V58.5506V58.556V58.5615V58.5669V58.5724V58.5779V58.5834V58.5889V58.5944V58.6V58.6055V58.6111V58.6167V58.6223V58.6279V58.6336V58.6393V58.6449V58.6507V58.6564V58.6621V58.6679V58.6737V58.6795V58.6854V58.6913V58.6972V58.7031V58.709V58.715V58.721V58.7271V58.7331V58.7392V58.7453V58.7515V58.7577V58.7639V58.7701V58.7764V58.7827V58.7891V58.7955V58.8019V58.8083V58.8148V58.8214V58.8279V58.8345V58.8412V58.8479V58.8546V58.8613V58.8681V58.875V58.8819V58.8888V58.8958V58.9028V58.9098V58.9169V58.9241V58.9313V58.9385V58.9458V58.9532V58.9606V58.968V58.9755V58.983V58.9906V58.9982V59.0059V59.0137V59.0215V59.0293V59.0372V59.0452V59.0532V59.0613V59.0694V59.0776V59.0858V59.0941V59.1025V59.1109V59.1193V59.1279V59.1365V59.1451V59.1539V59.1627V59.1715V59.1804V59.1894V59.1984V59.2075V59.2167V59.226V59.2353V59.2446V59.2541V59.2636V59.2732V59.2828V59.2926V59.3024V59.3122V59.3222V59.3322V59.3423V59.3524V59.3627V59.373V59.3834V59.3938V59.4044V59.415V59.4257V59.4365V59.4473V59.4583V59.4693V59.4804V59.4916V59.5028V59.5142V59.5256V59.5371V59.5487V59.5604V59.5722V59.5841V59.596V59.608V59.6201V59.6324V59.6447V59.657V59.6695V59.6821V59.6948V59.7075V59.7204V59.7333V59.7463V59.7595V59.7727V59.786V59.7994V59.8129V59.8265V59.8402V59.854V59.8679V59.882V59.8961V59.9103V59.9246V59.939V59.9535V59.9681V59.9828V59.9976V60.0126V60.0276V60.0427V60.058V60.0733V60.0888V60.1044V60.1201V60.1358V60.1517V60.1677V60.1839V60.2001V60.2164V60.2329V60.2495V60.2662V60.283V60.2999V60.3169V60.334V60.3513V60.3687V60.3862V60.4038V60.4215V60.4394V60.4574V60.4755V60.4937V60.512V60.5305V60.5491V60.5678V60.5866V60.6056V60.6247V60.6439V60.6632V60.6827V60.7023V60.722V60.7419V60.7619V60.782V60.8022V60.8226V60.8431V60.8637V60.8845V60.9054V60.9264V60.9476V60.9689V60.9904V61.012V61.0337V61.0555V61.0775V61.0997V61.1219V61.1444V61.1669V61.1896V61.2124V61.2354V61.2585V61.2818V61.3052V61.3288V61.3525V61.3763V61.4003V61.4245V61.4487V61.4732V61.4978V61.5225V61.5474V61.5724V61.5976V61.6229V61.6484V61.6741V61.6998V61.7258V61.7519V61.7781V61.8046V61.8311V61.8579V61.8847V61.9118V61.939V61.9663V61.9938V62.0215V62.0494V62.0774V62.1055V62.1338V62.1623V62.191V62.2198V62.2488V62.2779V62.3072V62.3367V62.3664V62.3962V62.4261V62.4563V62.4866V62.5171V62.5478V62.5786V62.6096V62.6408V62.6721V62.7036V62.7353V62.7672V62.7992V62.8314V62.8638V62.8964V62.9292V62.9621V62.9952V63.0285V63.062V63.0956V63.1294V63.1634V63.1976V63.232V63.2665V63.3013V63.3362V63.3713V63.4066V63.4421V63.4778V63.5136V63.5497V63.5859V63.6223V63.6589V63.6957V63.7327V63.7699V63.8073V63.8448V63.8826V63.9205V63.9587V63.997V64.0356V64.0743V64.1132V64.1523V64.1917V64.2312V64.2709V64.3108V64.3509V64.3913V64.4318V64.4725V64.5134V64.5546V64.5959V64.6374V64.6792V64.7211V64.7632V64.8056V64.8482V64.8909V64.9339V64.9771V65.0205V65.0641V65.1079V65.1519V65.1962V65.2406V65.2853V65.3302V65.3753V65.4206V65.4661V65.5118V65.5578V65.6039V65.6503V65.6969V65.7437V65.7908V65.838V65.8855V65.9332V65.9811V66.0293V66.0776V66.1262V66.175V66.2241V66.2733V66.3228V66.3725V66.4225V66.4726V66.523V66.5736C56.6168 68.5646 55.5334 70.0608 53.8398 71.0755C52.1355 72.0967 49.8353 72.6109 47.5103 72.5998C45.1855 72.5888 42.8838 72.0529 41.1778 71.0253C39.4806 70.003 38.4 68.5168 38.4 66.5736V58.194C38.4566 57.2078 38.6387 56.6851 38.9435 56.3647C39.2491 56.0433 39.7494 55.849 40.6525 55.7137H40.6567H40.7552L41.131 55.7137L42.4891 55.7137L46.7604 55.7137L54.5577 55.7137C55.6413 55.7137 56.0948 55.9201 56.3118 56.1766C56.5434 56.4503 56.6168 56.8974 56.6168 57.6908Z" fill="url(#paint1_linear)" stroke="white" stroke-width="0.8"/>
<circle cx="47.4265" cy="60.9695" r="2.40497" fill="#8DE1F2"/>
<circle cx="47.4265" cy="60.9695" r="2.40497" stroke="#26498C" stroke-width="0.6"/>
<circle cx="47.4265" cy="60.9695" r="2.40497" stroke="white" stroke-width="0.6"/>
<path d="M45.1621 68.9483L46.2019 63.1548H48.818L49.9321 68.9483H45.1621Z" fill="#8DE1F2"/>
<path d="M45.1621 68.9483L46.2019 63.1548H48.818L49.9321 68.9483H45.1621Z" stroke="#26498C" stroke-width="0.6"/>
<path d="M45.1621 68.9483L46.2019 63.1548H48.818L49.9321 68.9483H45.1621Z" stroke="white" stroke-width="0.6"/>
<path d="M41.2525 52.5381C41.447 49.1925 44.5171 47.3368 47.7338 47.2806C49.3295 47.2527 50.9028 47.6768 52.0884 48.5489C53.2614 49.4118 54.0731 50.7247 54.1577 52.5359V55.3692C54.1129 55.3833 54.0506 55.3985 53.9683 55.4119C53.6952 55.4566 53.311 55.4656 52.9158 55.4375C52.5199 55.4095 52.1456 55.3466 51.8896 55.2633C51.8212 55.241 51.7696 55.2199 51.7322 55.2019C52.0746 53.3834 51.6937 51.9944 50.869 51.0686C50.03 50.1267 48.7874 49.7278 47.5745 49.7982C46.3614 49.8687 45.1371 50.4095 44.3124 51.4015C43.5567 52.3105 43.1613 53.5683 43.3843 55.1157H41.2525V52.5381ZM54.2389 55.3353C54.239 55.3353 54.2383 55.3358 54.2367 55.3368C54.2381 55.3358 54.2389 55.3353 54.2389 55.3353Z" fill="url(#paint2_linear)" stroke="white" stroke-width="0.8"/>
<path d="M49.7221 55.2494H47.0572C49.9712 52 52.7867 47.0192 53 44C54.2867 45.0192 53.6542 47.8175 53.5 49C51.7726 52.9292 49.8249 55.2494 49.7221 55.2494Z" fill="#000923"/>
<ellipse cx="58.8961" cy="11.0112" rx="1.37407" ry="1.59588" transform="rotate(23.477 58.8961 11.0112)" fill="#004279"/>
<circle cx="36.6927" cy="37.1068" r="0.857237" fill="#EC2E2E"/>
<path d="M36.678 37.3925L37.4071 38.6069C36.9937 39.0318 36.3667 39.099 35.9069 38.6069L36.678 37.3925Z" fill="#EC2E2E"/>
<path d="M36.7495 36.8081L37.4785 35.5937C37.0652 35.1688 36.4382 35.1016 35.9784 35.5937L36.7495 36.8081Z" fill="#EC2E2E"/>
<path d="M36.4015 37.1634L35.1941 37.9042C34.7653 37.495 34.6921 36.8687 35.1796 36.4041L36.4015 37.1634Z" fill="#EC2E2E"/>
<path d="M36.8426 37.1634L38.05 37.9042C38.4788 37.495 38.552 36.8687 38.0645 36.4041L36.8426 37.1634Z" fill="#EC2E2E"/>
<path d="M32.5802 34.1676L32.0106 34.8315L32.8811 34.7446L32.9598 34.8955L32.0773 35.3557L32.0166 35.2393L32.3603 35.0601L32.7369 34.8776L31.8712 34.9605L31.8247 34.8714L32.3868 34.2106L32.0237 34.4146L31.68 34.5938L31.6193 34.4774L32.5019 34.0172L32.5802 34.1676ZM32.305 35.8221C32.2587 35.7332 32.25 35.6457 32.2792 35.5596C32.3087 35.4733 32.3723 35.4046 32.4701 35.3536L32.4907 35.3429C32.5558 35.309 32.6202 35.291 32.684 35.2891C32.7484 35.2874 32.8065 35.3013 32.8584 35.3308C32.9108 35.3605 32.9507 35.4014 32.9778 35.4535C33.0223 35.5388 33.0288 35.6197 32.9973 35.6963C32.9657 35.7729 32.8976 35.8384 32.793 35.893L32.7463 35.9173L32.5147 35.473C32.4508 35.5084 32.4083 35.5544 32.3871 35.6113C32.3664 35.6683 32.3706 35.7247 32.3997 35.7804C32.4204 35.82 32.4459 35.8494 32.4764 35.8684C32.5069 35.8875 32.5409 35.9003 32.5783 35.907L32.5606 36.0033C32.4475 35.9924 32.3623 35.932 32.305 35.8221ZM32.8857 35.5016C32.8621 35.4563 32.8257 35.427 32.7766 35.4135C32.7278 35.3999 32.6719 35.4049 32.6087 35.4286L32.78 35.7572L32.7885 35.7527C32.8438 35.7198 32.8798 35.6815 32.8966 35.6378C32.9138 35.5939 32.9102 35.5485 32.8857 35.5016ZM33.4125 35.9293L33.2536 36.0121L33.3175 36.1345L33.2308 36.1797L33.167 36.0573L32.7602 36.2693C32.734 36.283 32.717 36.2988 32.7094 36.3167C32.7021 36.3343 32.7054 36.3563 32.719 36.3825C32.7258 36.3955 32.7375 36.412 32.7541 36.4321L32.6632 36.4795C32.6397 36.4542 32.6207 36.4276 32.6062 36.3998C32.5801 36.3496 32.5755 36.304 32.5926 36.2627C32.6096 36.2214 32.646 36.1863 32.7018 36.1572L33.1085 35.9451L33.0462 35.8257L33.1329 35.7805L33.1952 35.8999L33.354 35.8171L33.4125 35.9293ZM32.86 36.8865C32.8136 36.7976 32.805 36.7101 32.8341 36.624C32.8637 36.5377 32.9273 36.469 33.0251 36.418L33.0457 36.4073C33.1108 36.3734 33.1752 36.3554 33.239 36.3535C33.3033 36.3518 33.3615 36.3657 33.4133 36.3952C33.4658 36.4249 33.5056 36.4658 33.5328 36.5179C33.5773 36.6032 33.5838 36.6841 33.5522 36.7607C33.5207 36.8373 33.4526 36.9028 33.348 36.9574L33.3013 36.9817L33.0696 36.5374C33.0058 36.5728 32.9633 36.6188 32.942 36.6757C32.9214 36.7327 32.9256 36.7891 32.9547 36.8448C32.9753 36.8844 33.0009 36.9138 33.0314 36.9328C33.0619 36.9519 33.0958 36.9647 33.1333 36.9714L33.1156 37.0677C33.0025 37.0568 32.9173 36.9964 32.86 36.8865ZM33.4407 36.566C33.4171 36.5207 33.3807 36.4914 33.3316 36.4779C33.2828 36.4643 33.2269 36.4693 33.1637 36.493L33.335 36.8216L33.3434 36.8171C33.3987 36.7842 33.4348 36.7459 33.4516 36.7022C33.4688 36.6583 33.4651 36.6129 33.4407 36.566ZM30.5573 35.412C30.5512 35.3936 30.5431 35.3744 30.5327 35.3546C30.4944 35.2811 30.4371 35.2475 30.3607 35.2539L29.8952 35.4966L29.8367 35.3845L30.4926 35.0425L30.5495 35.1516L30.4746 35.1929C30.5524 35.1992 30.6089 35.236 30.6441 35.3035C30.6555 35.3253 30.6613 35.3434 30.6615 35.3576L30.5573 35.412ZM28.6015 36.3816C28.5781 36.2669 28.5753 36.1758 28.5931 36.1084C28.6116 36.0413 28.6515 35.9917 28.7129 35.9596C28.7824 35.9234 28.8542 35.9212 28.9284 35.9529C29.0031 35.9849 29.0637 36.0453 29.11 36.1342C29.1416 36.1948 29.158 36.2549 29.1592 36.3144C29.1607 36.3743 29.1475 36.4279 29.1198 36.4753C29.0922 36.523 29.054 36.5597 29.0051 36.5852L28.9441 36.4682C28.9975 36.4404 29.0305 36.4016 29.0431 36.3518C29.0561 36.3019 29.0465 36.246 29.0142 36.1841C28.9843 36.1268 28.9482 36.0885 28.9059 36.0695C28.8642 36.0506 28.8209 36.0529 28.7761 36.0763C28.7401 36.095 28.7175 36.1261 28.7082 36.1695C28.6996 36.213 28.704 36.2768 28.7216 36.3606C28.7393 36.4449 28.7464 36.5142 28.7428 36.5685C28.7399 36.623 28.727 36.6688 28.7042 36.7058C28.6816 36.7433 28.6479 36.7738 28.603 36.7971C28.5315 36.8344 28.4596 36.8365 28.3872 36.8032C28.3153 36.7698 28.255 36.7064 28.2064 36.6131C28.1748 36.5525 28.1568 36.4899 28.1524 36.4253C28.1485 36.3606 28.1592 36.3033 28.1847 36.2536C28.2103 36.2042 28.2488 36.1662 28.3001 36.1394L28.3611 36.2564C28.3078 36.2842 28.2758 36.3258 28.2651 36.3812C28.2551 36.4369 28.2672 36.4976 28.3015 36.5635C28.3336 36.6249 28.3706 36.6654 28.4128 36.6851C28.4549 36.7048 28.4976 36.7033 28.5408 36.6808C28.584 36.6582 28.6095 36.6257 28.6171 36.5832C28.6251 36.5404 28.6199 36.4733 28.6015 36.3816ZM28.5774 37.3247C28.5311 37.2358 28.5224 37.1483 28.5515 37.0622C28.5811 36.9759 28.6447 36.9072 28.7425 36.8562L28.7631 36.8455C28.8282 36.8116 28.8926 36.7937 28.9564 36.7918C29.0207 36.79 29.0789 36.8039 29.1307 36.8334C29.1832 36.8631 29.2231 36.904 29.2502 36.9562C29.2947 37.0414 29.3012 37.1223 29.2696 37.1989C29.2381 37.2755 29.17 37.341 29.0654 37.3956L29.0187 37.4199L28.787 36.9756C28.7232 37.011 28.6807 37.057 28.6594 37.1139C28.6388 37.1709 28.643 37.2273 28.6721 37.283C28.6927 37.3226 28.7183 37.352 28.7488 37.371C28.7793 37.3901 28.8133 37.4029 28.8507 37.4096L28.833 37.506C28.7199 37.495 28.6347 37.4346 28.5774 37.3247ZM29.1581 37.0042C29.1345 36.9589 29.0981 36.9296 29.049 36.9162C29.0002 36.9025 28.9443 36.9075 28.8811 36.9312L29.0524 37.2598L29.0609 37.2553C29.1161 37.2224 29.1522 37.1841 29.169 37.1404C29.1862 37.0965 29.1825 37.0511 29.1581 37.0042ZM29.1103 37.504C29.2126 37.4507 29.3061 37.432 29.391 37.4479C29.4762 37.4635 29.5392 37.5104 29.5799 37.5884C29.6216 37.6684 29.6259 37.7456 29.5927 37.8199L29.6683 37.7874L29.7217 37.8899L29.0816 38.2236C28.9967 38.2679 28.9167 38.2775 28.8414 38.2525C28.7664 38.2279 28.7068 38.1731 28.6625 38.0883C28.6379 38.041 28.6239 37.9894 28.6205 37.9336C28.6171 37.8779 28.6267 37.8289 28.6495 37.7867L28.7471 37.8098C28.7128 37.8889 28.7137 37.9631 28.7499 38.0327C28.7784 38.0872 28.8159 38.1216 28.8624 38.1359C28.9091 38.1506 28.9604 38.1434 29.0161 38.1144L29.0725 38.085C28.9974 38.0671 28.9396 38.0193 28.8991 37.9418C28.8591 37.865 28.8576 37.7866 28.8945 37.7067C28.9317 37.6272 29.0036 37.5596 29.1103 37.504ZM29.1564 37.6234C29.0824 37.6619 29.0321 37.7074 29.0055 37.7599C28.9793 37.8121 28.9804 37.8655 29.0088 37.92C29.0457 37.9907 29.1049 38.0259 29.1864 38.0255L29.4859 37.8694C29.5306 37.8024 29.5351 37.7346 29.4992 37.6659C29.4708 37.6113 29.4274 37.5797 29.3689 37.5712C29.3105 37.5626 29.2396 37.58 29.1564 37.6234ZM29.2841 38.68C29.2377 38.5911 29.2291 38.5036 29.2582 38.4175C29.2877 38.3312 29.3514 38.2626 29.4492 38.2116L29.4698 38.2008C29.5349 38.1669 29.5993 38.149 29.663 38.1471C29.7274 38.1454 29.7856 38.1593 29.8374 38.1888C29.8899 38.2185 29.9297 38.2594 29.9569 38.3115C30.0014 38.3968 30.0078 38.4777 29.9763 38.5542C29.9448 38.6308 29.8767 38.6964 29.7721 38.751L29.7254 38.7753L29.4937 38.331C29.4299 38.3663 29.3874 38.4124 29.3661 38.4692C29.3455 38.5262 29.3497 38.5826 29.3788 38.6384C29.3994 38.678 29.425 38.7073 29.4555 38.7264C29.486 38.7454 29.5199 38.7583 29.5573 38.765L29.5397 38.8613C29.4266 38.8504 29.3414 38.79 29.2841 38.68ZM29.8648 38.3595C29.8412 38.3143 29.8048 38.2849 29.7557 38.2715C29.7069 38.2579 29.6509 38.2629 29.5878 38.2866L29.759 38.6151L29.7675 38.6107C29.8228 38.5777 29.8589 38.5394 29.8757 38.4957C29.8928 38.4518 29.8892 38.4064 29.8648 38.3595ZM29.5611 39.1817L29.5026 39.0695L30.4336 38.5841L30.4921 38.6962L29.5611 39.1817Z" fill="#6F6F6F"/>
<path d="M40.7375 32.0678L45.6733 38.803L43.5653 39.8827L38.7838 33.3017L40.7375 32.0678Z" fill="black"/>
<path d="M40.4832 33.5049C40.364 33.5927 40.2604 33.6377 40.1724 33.6397C40.0844 33.6417 40.0086 33.5994 39.9448 33.5128C39.8818 33.4273 39.8634 33.3432 39.8896 33.2605C39.9162 33.1775 39.9852 33.0937 40.0968 33.0093L40.2327 32.9091C40.3505 32.8223 40.453 32.7782 40.5402 32.7768C40.6275 32.7753 40.7031 32.8181 40.7672 32.905C40.8307 32.9912 40.8498 33.0751 40.8244 33.1566C40.7994 33.2379 40.7297 33.3216 40.6153 33.4075L40.4832 33.5049ZM40.5474 33.3005C40.6337 33.2369 40.6875 33.1786 40.7089 33.1255C40.7307 33.072 40.7222 33.0191 40.6836 32.9666C40.6452 32.9145 40.5976 32.891 40.5407 32.8961C40.4839 32.9012 40.4145 32.9334 40.3325 32.9927L40.1696 33.1127C40.083 33.1765 40.0282 33.2362 40.0051 33.2917C39.9827 33.3473 39.9903 33.4006 40.0278 33.4515C40.0649 33.5018 40.1118 33.5247 40.1685 33.5203C40.2255 33.5162 40.2962 33.4839 40.3807 33.4233L40.5474 33.3005ZM41.3233 34.6449C41.2041 34.7328 41.1005 34.7777 41.0125 34.7797C40.9246 34.7817 40.8487 34.7394 40.7849 34.6528C40.7219 34.5673 40.7035 34.4832 40.7297 34.4005C40.7563 34.3175 40.8254 34.2338 40.9369 34.1493L41.0728 34.0491C41.1906 33.9623 41.2931 33.9182 41.3803 33.9168C41.4676 33.9153 41.5432 33.9581 41.6073 34.045C41.6708 34.1312 41.6899 34.2151 41.6645 34.2967C41.6395 34.3779 41.5698 34.4616 41.4554 34.5476L41.3233 34.6449ZM41.3876 34.4405C41.4738 34.377 41.5276 34.3186 41.549 34.2655C41.5708 34.2121 41.5623 34.1591 41.5237 34.1067C41.4853 34.0546 41.4377 34.0311 41.3808 34.0361C41.324 34.0412 41.2546 34.0734 41.1726 34.1327L41.0097 34.2527C40.9231 34.3165 40.8683 34.3762 40.8452 34.4317C40.8228 34.4873 40.8304 34.5406 40.868 34.5916C40.905 34.6418 40.9519 34.6647 41.0086 34.6603C41.0656 34.6562 41.1363 34.6239 41.2208 34.5634L41.3876 34.4405ZM42.1635 35.7849C42.0442 35.8728 41.9406 35.9177 41.8526 35.9197C41.7647 35.9217 41.6888 35.8794 41.625 35.7928C41.562 35.7073 41.5436 35.6232 41.5698 35.5405C41.5964 35.4575 41.6655 35.3738 41.777 35.2893L41.9129 35.1892C42.0307 35.1024 42.1332 35.0582 42.2204 35.0568C42.3077 35.0553 42.3834 35.0981 42.4474 35.185C42.511 35.2713 42.53 35.3551 42.5046 35.4367C42.4796 35.518 42.4099 35.6016 42.2955 35.6876L42.1635 35.7849ZM42.2277 35.5805C42.3139 35.517 42.3677 35.4586 42.3891 35.4055C42.4109 35.3521 42.4024 35.2991 42.3638 35.2467C42.3254 35.1946 42.2778 35.1711 42.2209 35.1762C42.1641 35.1812 42.0947 35.2134 42.0127 35.2727L41.8498 35.3927C41.7633 35.4566 41.7084 35.5162 41.6854 35.5717C41.6629 35.6273 41.6705 35.6806 41.7081 35.7316C41.7451 35.7818 41.792 35.8048 41.8487 35.8003C41.9057 35.7962 41.9765 35.7639 42.0609 35.7034L42.2277 35.5805ZM38.8732 34.6914C38.754 34.7792 38.6504 34.8242 38.5624 34.8262C38.4744 34.8281 38.3985 34.7859 38.3347 34.6993C38.2717 34.6138 38.2533 34.5297 38.2795 34.447C38.3061 34.364 38.3752 34.2802 38.4867 34.1958L38.6227 34.0956C38.7404 34.0088 38.8429 33.9647 38.9302 33.9632C39.0174 33.9618 39.0931 34.0045 39.1572 34.0915C39.2207 34.1777 39.2398 34.2616 39.2144 34.3431C39.1894 34.4244 39.1197 34.508 39.0053 34.594L38.8732 34.6914ZM38.9374 34.487C39.0236 34.4234 39.0774 34.3651 39.0988 34.3119C39.1206 34.2585 39.1122 34.2056 39.0735 34.1531C39.0351 34.101 38.9875 34.0775 38.9307 34.0826C38.8739 34.0877 38.8044 34.1199 38.7225 34.1792L38.5596 34.2992C38.473 34.363 38.4182 34.4227 38.3951 34.4782C38.3726 34.5337 38.3802 34.587 38.4178 34.638C38.4548 34.6883 38.5017 34.7112 38.5585 34.7068C38.6155 34.7027 38.6862 34.6704 38.7706 34.6098L38.9374 34.487Z" fill="white"/>
<path d="M44.1823 36.7978L45.6733 38.803L43.6681 39.9855L42.2285 38.0318L44.1823 36.7978Z" fill="#DA0E0E"/>
<path d="M43.909 38.171C43.7898 38.2589 43.6862 38.3038 43.5982 38.3058C43.5102 38.3078 43.4344 38.2655 43.3705 38.1789C43.3076 38.0934 43.2892 38.0093 43.3154 37.9266C43.342 37.8436 43.411 37.7599 43.5226 37.6754L43.6585 37.5753C43.7763 37.4885 43.8788 37.4443 43.966 37.4429C44.0533 37.4414 44.1289 37.4842 44.193 37.5711C44.2565 37.6574 44.2756 37.7412 44.2502 37.8228C44.2252 37.9041 44.1555 37.9877 44.0411 38.0737L43.909 38.171ZM43.9732 37.9666C44.0595 37.9031 44.1133 37.8447 44.1347 37.7916C44.1565 37.7382 44.148 37.6852 44.1094 37.6328C44.071 37.5807 44.0234 37.5572 43.9665 37.5623C43.9097 37.5673 43.8403 37.5995 43.7583 37.6588L43.5954 37.7788C43.5088 37.8427 43.454 37.9023 43.4309 37.9578C43.4085 38.0134 43.4161 38.0667 43.4536 38.1177C43.4907 38.1679 43.5376 38.1909 43.5943 38.1864C43.6513 38.1823 43.722 38.15 43.8065 38.0895L43.9732 37.9666ZM42.299 39.3575C42.1798 39.4454 42.0761 39.4903 41.9882 39.4923C41.9002 39.4943 41.8243 39.452 41.7605 39.3654C41.6975 39.2799 41.6791 39.1958 41.7053 39.1131C41.7319 39.0301 41.801 38.9464 41.9125 38.8619L42.0485 38.7617C42.1662 38.675 42.2687 38.6308 42.356 38.6294C42.4432 38.6279 42.5189 38.6707 42.583 38.7576C42.6465 38.8438 42.6656 38.9277 42.6402 39.0093C42.6152 39.0905 42.5454 39.1742 42.4311 39.2602L42.299 39.3575ZM42.3632 39.1531C42.4494 39.0896 42.5032 39.0312 42.5246 38.9781C42.5464 38.9247 42.538 38.8717 42.4993 38.8193C42.4609 38.7672 42.4133 38.7437 42.3565 38.7487C42.2996 38.7538 42.2302 38.786 42.1483 38.8453L41.9854 38.9653C41.8988 39.0291 41.844 39.0888 41.8209 39.1443C41.7984 39.1999 41.806 39.2532 41.8436 39.3042C41.8806 39.3544 41.9275 39.3773 41.9843 39.3729C42.0413 39.3688 42.112 39.3365 42.1964 39.276L42.3632 39.1531Z" fill="white"/>
<circle cx="39.3717" cy="41.9452" r="2.33585" transform="rotate(69.9966 39.3717 41.9452)" fill="white"/>
<circle cx="39.3957" cy="42.059" r="0.44414" transform="rotate(69.9966 39.3957 42.059)" fill="#C2DDEB"/>
<circle cx="39.3957" cy="42.059" r="0.279644" transform="rotate(69.9966 39.3957 42.059)" fill="#EEEBEB"/>
<path d="M39.5825 41.8509C39.7273 42.0083 39.6698 42.1868 39.5784 42.2725L41.2348 41.9802L39.5825 41.8509Z" fill="#FF0000"/>
<path d="M40.7688 42.9357L40.7378 42.8504L41.3035 42.6445L41.1783 42.4962L41.2554 42.4681L41.4352 42.6781L41.4401 42.6914L40.7688 42.9357Z" fill="black"/>
<path d="M40.1749 43.997L40.0155 43.5592L40.0765 43.537L40.4177 43.6747C40.469 43.6949 40.5091 43.7069 40.5379 43.711C40.5672 43.7152 40.5948 43.7126 40.6208 43.7032C40.6557 43.6905 40.6804 43.6695 40.6951 43.6403C40.7097 43.611 40.7106 43.5788 40.6978 43.5437C40.6825 43.5014 40.6584 43.473 40.6257 43.4582C40.5933 43.4436 40.5558 43.4442 40.5129 43.4597L40.482 43.3749C40.5435 43.3525 40.6004 43.3541 40.6527 43.3798C40.7051 43.4057 40.7434 43.4519 40.7676 43.5183C40.7902 43.5804 40.7917 43.6354 40.7721 43.6834C40.7528 43.7313 40.7161 43.7651 40.6619 43.7848C40.5962 43.8088 40.5026 43.7954 40.3813 43.7446L40.122 43.6363L40.2441 43.9717L40.1749 43.997Z" fill="black"/>
<path d="M39.3369 44.0861L39.3601 44.1499C39.3753 44.1898 39.3974 44.2174 39.4262 44.2329C39.4551 44.2484 39.4869 44.2498 39.5218 44.2371C39.6001 44.2086 39.625 44.1553 39.5966 44.0773C39.5833 44.0406 39.562 44.0151 39.5329 44.0008C39.5042 43.9866 39.4726 43.9858 39.438 43.9984L39.4071 43.9135C39.46 43.8943 39.5109 43.8976 39.5598 43.9234C39.6092 43.9494 39.6447 43.9923 39.6664 44.0519C39.6893 44.115 39.6906 44.1704 39.6703 44.2183C39.65 44.2663 39.6102 44.301 39.5508 44.3226C39.5218 44.3332 39.4902 44.334 39.4561 44.3249C39.4221 44.3162 39.3924 44.298 39.3672 44.2705C39.3689 44.3115 39.3599 44.3468 39.3402 44.3764C39.3207 44.4064 39.2915 44.4285 39.2526 44.4426C39.1927 44.4645 39.138 44.4622 39.0885 44.4359C39.0391 44.4095 39.003 44.365 38.9802 44.3023C38.9573 44.2396 38.9557 44.1823 38.9753 44.1305C38.995 44.079 39.0327 44.0431 39.0884 44.0228L39.1194 44.1082C39.0842 44.121 39.0603 44.1427 39.0475 44.1733C39.0348 44.2039 39.0354 44.2385 39.0494 44.2771C39.0644 44.318 39.0865 44.3455 39.1158 44.3594C39.1451 44.3733 39.1798 44.373 39.2199 44.3584C39.2587 44.3443 39.2842 44.3215 39.2963 44.2901C39.3084 44.2586 39.3066 44.2203 39.2909 44.1751L39.2676 44.1114L39.3369 44.0861Z" fill="black"/>
<path d="M38.2089 43.9576L38.2426 44.0502L38.1733 44.0755L38.1396 43.9828L37.9845 44.0392L37.9534 43.9539L38.1085 43.8974L37.9978 43.5932L38.0478 43.575L38.6197 43.7056L38.6526 43.796L38.2089 43.9576ZM38.1022 43.6644L38.1778 43.8722L38.5054 43.753L38.4834 43.7495L38.1022 43.6644Z" fill="black"/>
<path d="M37.2809 42.6033L37.6264 42.516L37.751 42.8583L37.6725 42.8868L37.5741 42.6166L37.3846 42.6627C37.4158 42.6884 37.439 42.7221 37.4541 42.7637C37.4763 42.8245 37.4737 42.8802 37.4463 42.9307C37.4193 42.9811 37.3715 43.0188 37.303 43.0437C37.2342 43.0687 37.1731 43.0699 37.1197 43.047C37.0668 43.0244 37.0282 42.9797 37.0039 42.913C36.9824 42.854 36.9813 42.7998 37.0004 42.7506C37.0196 42.7014 37.0571 42.6636 37.113 42.6374L37.1422 42.7177C37.1059 42.7368 37.0819 42.7609 37.0704 42.7901C37.0591 42.8191 37.0601 42.8517 37.0732 42.8878C37.0876 42.9273 37.1123 42.9532 37.1473 42.9658C37.1825 42.9786 37.2238 42.9764 37.2712 42.9591C37.3158 42.9429 37.3472 42.9176 37.3652 42.8834C37.3836 42.8493 37.3855 42.8121 37.3708 42.7717C37.3573 42.7347 37.3386 42.7086 37.3147 42.6934L37.2882 42.6776L37.2809 42.6033Z" fill="black"/>
<path d="M37.7435 41.2975L37.6715 41.3237L37.6658 41.3081C37.6405 41.2425 37.6018 41.197 37.5496 41.1717C37.4974 41.1463 37.4358 41.1431 37.3648 41.162C37.4179 41.1825 37.4556 41.2232 37.4778 41.2841C37.4989 41.3422 37.4953 41.396 37.4669 41.4455C37.4386 41.4953 37.392 41.532 37.3272 41.5556C37.2584 41.5806 37.1965 41.5819 37.1415 41.5593C37.0866 41.537 37.0477 41.4943 37.0247 41.4313C37.0015 41.3674 37.0071 41.3066 37.0415 41.2491C37.0763 41.1914 37.1324 41.1484 37.2098 41.1203L37.2423 41.1084C37.3653 41.0636 37.4687 41.0556 37.5526 41.0843C37.6369 41.1132 37.6987 41.1792 37.738 41.2823L37.7435 41.2975ZM37.4019 41.2956C37.3914 41.2665 37.3729 41.2429 37.3465 41.2248C37.3202 41.2067 37.2922 41.1977 37.2624 41.1977L37.2312 41.2091C37.1761 41.2291 37.1363 41.2577 37.1117 41.2947C37.087 41.3317 37.0815 41.3688 37.0949 41.4058C37.1089 41.444 37.1338 41.4689 37.1699 41.4803C37.206 41.4921 37.2469 41.4897 37.2925 41.4731C37.3384 41.4564 37.3713 41.4318 37.3913 41.3992C37.4118 41.3668 37.4153 41.3323 37.4019 41.2956Z" fill="black"/>
<path d="M38.3857 40.6147L37.6646 40.5639L37.6322 40.4749L38.3309 40.5328L38.1993 40.1713L38.2691 40.1459L38.4334 40.5974L38.3857 40.6147Z" fill="black"/>
<path d="M39.3315 40.2407C39.2982 40.2529 39.2653 40.2548 39.2328 40.2465C39.2005 40.2386 39.1715 40.2223 39.1459 40.1976C39.1436 40.238 39.1318 40.2735 39.1104 40.3041C39.0891 40.3351 39.0602 40.3572 39.0238 40.3704C38.966 40.3915 38.9129 40.3887 38.8644 40.362C38.816 40.3356 38.7802 40.2906 38.757 40.227C38.7336 40.1627 38.732 40.105 38.7521 40.0536C38.7726 40.0025 38.8117 39.9665 38.8692 39.9456C38.9053 39.9324 38.9414 39.9303 38.9776 39.9393C39.0139 39.9487 39.0459 39.968 39.0736 39.9974C39.0774 39.9624 39.0893 39.9316 39.109 39.905C39.1288 39.8784 39.1552 39.8591 39.1882 39.8471C39.2445 39.8266 39.2957 39.8284 39.3419 39.8524C39.3881 39.8765 39.4219 39.9181 39.4434 39.9771C39.4648 40.0358 39.4655 40.0893 39.4456 40.1374C39.4259 40.1858 39.3878 40.2203 39.3315 40.2407ZM38.9948 40.2849C39.0321 40.2713 39.0582 40.2483 39.0731 40.2159C39.088 40.1837 39.0886 40.1485 39.0746 40.1103C39.0607 40.0721 39.0379 40.0456 39.0062 40.0308C38.9746 40.0163 38.9398 40.016 38.9019 40.0298C38.864 40.0436 38.8382 40.0656 38.8246 40.0958C38.8112 40.1264 38.8117 40.1617 38.8263 40.2018C38.8408 40.2415 38.863 40.2688 38.8929 40.2835C38.9232 40.2981 38.9572 40.2986 38.9948 40.2849ZM39.3737 40.0025C39.3615 39.9691 39.3413 39.9459 39.3129 39.9326C39.285 39.9196 39.2532 39.9195 39.2178 39.9325C39.1838 39.9448 39.1599 39.9649 39.1462 39.9928C39.1328 40.0209 39.1324 40.0519 39.1447 40.0858C39.1571 40.1198 39.1773 40.1431 39.2055 40.1557C39.234 40.1685 39.2653 40.1687 39.2993 40.1564C39.3332 40.144 39.3571 40.1234 39.3708 40.0945C39.3845 40.0656 39.3855 40.0349 39.3737 40.0025Z" fill="black"/>
<path d="M40.1538 40.6213C40.1263 40.6112 40.1015 40.5961 40.0797 40.576C40.0579 40.5563 40.0417 40.5317 40.031 40.5023C40.017 40.4638 40.0142 40.4267 40.0227 40.391C40.0313 40.3557 40.0499 40.3239 40.0785 40.2959C40.1074 40.2677 40.1426 40.246 40.1842 40.2309C40.2289 40.2146 40.2722 40.2084 40.3141 40.2122C40.3561 40.2163 40.3923 40.2305 40.4226 40.2548C40.4529 40.2791 40.4757 40.312 40.4908 40.3536C40.5148 40.4197 40.509 40.4807 40.4733 40.5367C40.4379 40.5929 40.3776 40.6365 40.2923 40.6675L40.2675 40.6766C40.1375 40.7239 40.0331 40.7328 39.9545 40.7032C39.8761 40.6735 39.8173 40.6071 39.778 40.504L39.772 40.4875L39.8436 40.4614L39.8501 40.4793C39.8768 40.5489 39.9146 40.5961 39.9635 40.6209C40.0127 40.6456 40.0761 40.6458 40.1538 40.6213ZM40.1062 40.4905C40.1166 40.519 40.1348 40.5419 40.1609 40.5595C40.1872 40.5773 40.2151 40.587 40.2448 40.5887L40.2788 40.5763C40.3345 40.556 40.3753 40.5275 40.4014 40.4906C40.4275 40.4538 40.4338 40.4168 40.4203 40.3798C40.4067 40.3425 40.3814 40.3178 40.3444 40.3056C40.3077 40.2933 40.266 40.2957 40.2192 40.3127C40.1736 40.3293 40.14 40.3539 40.1182 40.3864C40.0968 40.4191 40.0929 40.4538 40.1062 40.4905Z" fill="black"/>
<path d="M41.0059 41.6425C40.9065 41.6787 40.8264 41.6886 40.7657 41.6722C40.705 41.6559 40.6615 41.6116 40.6353 41.5394C40.6093 41.4681 40.6137 41.4068 40.6483 41.3554C40.6832 41.3039 40.7474 41.2604 40.8409 41.225L40.9542 41.1838C41.0524 41.148 41.1315 41.1384 41.1916 41.155C41.2517 41.1716 41.2949 41.2161 41.3213 41.2886C41.3475 41.3605 41.3437 41.4218 41.3098 41.4726C41.2763 41.5233 41.2117 41.5665 41.116 41.6024L41.0059 41.6425ZM41.091 41.5154C41.1629 41.4892 41.2116 41.46 41.2369 41.4279C41.2626 41.3957 41.2675 41.3578 41.2516 41.314C41.2358 41.2706 41.2079 41.2449 41.1679 41.2369C41.1279 41.2289 41.0739 41.237 41.0058 41.2611L40.87 41.3106C40.7978 41.3368 40.7482 41.3667 40.7212 41.4001C40.6946 41.4336 40.6891 41.4717 40.7045 41.5142C40.7198 41.5561 40.7473 41.5812 40.7871 41.5896C40.827 41.5983 40.8819 41.5904 40.952 41.566L41.091 41.5154Z" fill="black"/>
<defs>
<linearGradient id="paint0_linear" x1="38" y1="162" x2="38" y2="-26.5" gradientUnits="userSpaceOnUse">
<stop stop-color="#5BBFFB"/>
<stop offset="0.911458" stop-color="white" stop-opacity="0"/>
</linearGradient>
<linearGradient id="paint1_linear" x1="47.5084" y1="55.3137" x2="47.5084" y2="73" gradientUnits="userSpaceOnUse">
<stop stop-color="#E3F5FE"/>
<stop offset="1" stop-color="#C2DDEB" stop-opacity="0.9"/>
</linearGradient>
<linearGradient id="paint2_linear" x1="47.7051" y1="46.8793" x2="47.7051" y2="55.8535" gradientUnits="userSpaceOnUse">
<stop stop-color="#E3F5FE"/>
<stop offset="1" stop-color="#C2DDEB" stop-opacity="0.9"/>
</linearGradient>
</defs>
</svg>
