<svg width="73" height="68" viewBox="0 0 73 68" fill="none" xmlns="http://www.w3.org/2000/svg">
<rect width="73" height="68" rx="5" fill="white"/>
<path d="M45.6356 46.2815H43.5714L42.8833 45.5934L44.9475 42.4971L45.6356 46.2815Z" fill="#F5F3F3"/>
<path d="M58.3649 46.2815H60.4291L61.1172 45.5934L59.053 42.4971L58.3649 46.2815Z" fill="#F5F3F3"/>
<path d="M42.8833 58.6667L42.5392 51.098H61.8052L61.4612 58.6667C53.5521 60.3046 49.5358 60.1774 42.8833 58.6667Z" fill="#0E5EC1"/>
<path d="M62.8374 18.7587C57.9476 22.7931 55.0748 22.8203 50.7962 19.4467C48.7137 19.2364 47.7248 19.6079 45.2916 21.1669C43.7361 9.83907 55.6022 5.54845 60.7561 17.8077L62.8374 18.7587Z" fill="#029BF6"/>
<path d="M57.761 18.878C56.6626 13.8399 54.7864 12.0525 49.0759 11.5339C49.3015 11.2081 49.5179 11.0558 50.108 10.8458C55.0044 11.1034 56.9787 12.8994 59.0506 18.5804L57.761 18.878Z" fill="#26498C"/>
<path d="M49.0757 28.3916L47.6996 24.4333C44.5759 22.866 46.1545 20.4652 48.7317 22.025L50.7959 19.4467C53.7799 21.7037 55.571 22.205 59.0528 21.1669C59.5527 25.6386 58.0602 28.2827 54.5803 29.7678C52.2606 30.0775 51.0441 29.796 49.0757 28.3916Z" fill="#FDD2B9"/>
<path d="M49.0759 28.3916L48.7319 30.7999C50.9738 36.1995 53.0949 36.1075 54.5805 30.7999V29.7678C52.6511 30.0505 51.1773 29.7813 49.0759 28.3916Z" fill="#FDD2B9"/>
<path d="M45.6356 31.832L43.9154 32.52L45.2915 46.0889L42.5392 46.2815V51.098H61.8052V46.2815H58.7089L60.7731 32.8641L58.7089 31.832L55.2686 45.9374H49.42L45.6356 31.832Z" fill="#0E5EC1"/>
<path d="M45.9796 56.2586H47.6998C46.3143 58.3621 44.9476 59.0109 45.2916 57.4819C41.6092 58.178 39.1682 58.0041 39.787 56.6026L45.9796 56.2586Z" fill="#81C9D8"/>
<path d="M37.7226 56.6026C35.0473 54.8244 35.3783 51.3256 36.3466 45.9375L42.5392 47.6576L40.8189 50.754L45.9794 51.442L54.2365 55.2264C49.0179 56.5777 45.4661 57.388 37.7226 56.6026Z" fill="#FDD2B9"/>
<path d="M56.9887 51.098H55.2686C56.6541 48.9945 58.0208 48.3457 57.6768 49.8747C60.429 49.3778 62.56 49.5358 63.1814 50.754L56.9887 51.098Z" fill="#81C9D8"/>
<path d="M63.5254 50.754C61.6521 50.5361 61.6689 49.4282 61.8052 48.0017L67.3098 46.2815C68.7325 52.0583 68.277 54.439 65.9337 56.6026C57.5341 56.7798 53.1376 55.4297 45.6356 51.442C47.7014 50.8923 48.9002 50.8043 51.1401 51.098L63.5254 50.754Z" fill="#FDD2B9"/>
<path d="M54.5805 55.2264C50.835 54.4888 48.5202 53.5803 45.9796 51.442C45.9796 51.442 45.9796 52.1301 48.7319 53.8503C51.4842 55.5705 54.5805 55.2264 54.5805 55.2264Z" fill="#DB9A75"/>
<path d="M49.42 46.2815L45.6356 31.832L48.7319 30.7999C51.5579 36.5205 52.7298 35.3707 54.5805 30.7999L58.7089 31.832L55.2686 46.2815H49.42Z" fill="white"/>
<path d="M59.053 43.5292L60.7732 32.8641C63.4539 33.6058 64.9104 36.5425 66.6218 43.5292L60.0851 45.2494L59.053 43.5292Z" fill="white"/>
<path d="M43.5713 44.9053L44.9475 42.8411L43.9154 32.5201C40.7729 32.6819 39.0586 35.5264 37.0347 43.1852L43.5713 44.9053Z" fill="white"/>
<path d="M60.4292 48.3457L59.7411 45.2494L66.9658 43.1852L67.6539 46.2815L60.4292 48.3457Z" fill="white"/>
<path d="M36.0026 45.9374L36.6906 42.8411L43.9154 44.9053L43.2273 48.0017L36.0026 45.9374Z" fill="white"/>
<path d="M48.7319 22.199L51.1402 19.1027C49.2619 18.951 47.9883 19.3178 45.2916 21.1669L45.9796 22.543C46.5658 21.2385 47.4913 21.3649 48.7319 22.199Z" fill="#372501"/>
<path d="M54.5805 29.7678C52.3399 29.3439 51.0798 29.1174 49.0759 28.0476V29.0797C51.1832 29.8068 52.3925 29.9108 54.5805 29.7678Z" fill="#DB9A75"/>
<path d="M60.7732 17.7265C57.2635 19.5499 54.7366 19.1919 50.4521 19.1027C53.6426 22.5467 58.0927 22.9521 63.1814 18.7586L60.7732 17.7265Z" fill="#26498C"/>
<path d="M54.1652 34.1961H49.89C49.89 34.1961 50.6025 35.6212 51.6713 35.7993C52.7401 35.9774 54.1652 34.1961 54.1652 34.1961Z" fill="white"/>
<path d="M27.482 46.2815H29.5462L30.2343 45.5934L28.17 42.4971L27.482 46.2815Z" fill="#F5F3F3"/>
<path d="M14.7526 46.2815H12.6884L12.0003 45.5934L14.0645 42.4971L14.7526 46.2815Z" fill="#F5F3F3"/>
<path d="M30.2342 58.6667L30.5782 51.098H11.3122L11.6563 58.6667C19.5654 60.3046 23.5817 60.1774 30.2342 58.6667Z" fill="#0E5EC1"/>
<path d="M10.2801 18.7587C15.1699 22.7931 18.0427 22.8203 22.3213 19.4467C24.4038 19.2363 25.3926 19.6079 27.8259 21.1669C27.0403 4.2125 12.6407 9.52416 12.3443 17.7265L10.2801 18.7587Z" fill="#029BF6"/>
<path d="M15.3565 18.878C16.4549 13.8399 18.3311 12.0525 24.0416 11.5339C23.816 11.208 23.5996 11.0558 23.0095 10.8458C18.1131 11.1034 16.1388 12.8994 14.0669 18.5804L15.3565 18.878Z" fill="#26498C"/>
<path d="M24.0418 28.3916L25.4179 24.4332C28.5416 22.866 26.963 20.4652 24.3858 22.025L22.3216 19.4467C19.3376 21.7037 17.5464 22.205 14.0647 21.1668C13.5648 25.6385 15.0573 28.2827 18.5372 29.7677C20.8569 30.0775 22.0734 29.796 24.0418 28.3916Z" fill="#FDD2B9"/>
<path d="M24.0416 28.3916L24.3856 30.7999C22.1437 36.1995 20.0226 36.1075 18.537 30.7999V29.7677C20.4664 30.0505 21.9402 29.7813 24.0416 28.3916Z" fill="#FDD2B9"/>
<path d="M27.4819 31.8319L29.2021 32.52L27.826 46.0889L30.5782 46.2814V51.0979H11.3122V46.2814H14.4086L12.3444 32.864L14.4086 31.8319L17.8489 45.9374H23.6975L27.4819 31.8319Z" fill="#0E5EC1"/>
<path d="M27.1379 56.2586H25.4177C26.8033 58.3621 28.17 59.0108 27.826 57.4818C31.5083 58.178 33.9493 58.0041 33.3305 56.6026L27.1379 56.2586Z" fill="#81C9D8"/>
<path d="M35.3949 56.6025C38.0702 54.8243 37.7392 51.3255 36.7709 45.9374L30.5782 47.6576L32.2986 50.7539L27.1381 51.442L18.881 55.2264C24.0996 56.5776 27.6513 57.3879 35.3949 56.6025Z" fill="#FDD2B9"/>
<path d="M16.1288 51.098H17.8489C16.4634 48.9945 15.0967 48.3457 15.4407 49.8747C12.6885 49.3778 10.5575 49.5357 9.93612 50.754L16.1288 51.098Z" fill="#81C9D8"/>
<path d="M9.59207 50.754C11.4654 50.5361 11.4486 49.4282 11.3123 48.0017L5.80768 46.2815C4.38503 52.0583 4.84046 54.439 7.18382 56.6026C15.5834 56.7798 19.9799 55.4297 27.4819 51.442C25.4161 50.8923 24.2173 50.8043 21.9774 51.098L9.59207 50.754Z" fill="#FDD2B9"/>
<path d="M18.537 55.2264C22.2825 54.4888 24.5973 53.5803 27.1379 51.442C27.1379 51.442 27.1379 52.1301 24.3856 53.8503C21.6333 55.5704 18.537 55.2264 18.537 55.2264Z" fill="#DB9A75"/>
<path d="M23.6975 46.2815L27.4819 31.832L24.3856 30.7999C21.5596 36.5205 20.3877 35.3707 18.537 30.7999L14.4086 31.832L17.8489 46.2815H23.6975Z" fill="white"/>
<path d="M14.0646 43.5292L12.3444 32.8641C9.66369 33.6058 8.20718 36.5424 6.49579 43.5292L13.0325 45.2494L14.0646 43.5292Z" fill="white"/>
<path d="M29.5461 44.9053L28.17 42.8411L29.2021 32.5201C32.3445 32.6819 34.0589 35.5264 36.0828 43.1852L29.5461 44.9053Z" fill="white"/>
<path d="M12.6884 48.3457L13.3765 45.2494L6.15171 43.1852L5.46364 46.2815L12.6884 48.3457Z" fill="white"/>
<path d="M37.1149 45.9374L36.4269 42.8411L29.2021 44.9053L29.8902 48.0016L37.1149 45.9374Z" fill="white"/>
<path d="M24.3856 22.199L21.9774 19.1026C23.8557 18.951 25.1293 19.3178 27.826 21.1668L27.1379 22.543C26.5517 21.2385 25.6263 21.3648 24.3856 22.199Z" fill="#372501"/>
<path d="M18.537 29.7678C20.7776 29.3439 22.0377 29.1174 24.0416 28.0476V29.0797C21.9343 29.8068 20.725 29.9108 18.537 29.7678Z" fill="#DB9A75"/>
<path d="M12.3444 17.7265C15.854 19.5499 18.381 19.1918 22.6655 19.1026C19.475 22.5467 15.0249 22.9521 9.93614 18.7586L12.3444 17.7265Z" fill="#26498C"/>
<path d="M19.9633 26.5363H15.688C15.688 26.5363 16.4006 27.9614 17.4694 28.1395C18.5382 28.3176 19.9633 26.5363 19.9633 26.5363Z" fill="white"/>
<path d="M58.4403 26.0321H54.165C54.165 26.0321 54.8776 27.4572 55.9464 27.6353C57.0152 27.8134 58.4403 26.0321 58.4403 26.0321Z" fill="white"/>
<path d="M42.4452 47.3503H44.5094L45.1975 46.6622L43.1333 43.5659L42.4452 47.3503Z" fill="#F5F3F3"/>
<path d="M29.7159 47.3503H27.6517L26.9636 46.6622L29.0278 43.5659L29.7159 47.3503Z" fill="#F5F3F3"/>
<path d="M45.1975 59.7356L45.5416 52.1668H26.2756L26.6196 59.7356C34.5287 61.3734 38.545 61.2463 45.1975 59.7356Z" fill="#0E5EC1"/>
<path d="M39.2018 30.4855L39.3489 31.8687C37.107 37.2683 34.9859 37.1763 33.5003 31.8687V30.8366C35.2828 31.5543 37.1004 31.8752 39.2018 30.4855Z" fill="#FDD2B9"/>
<path d="M42.4452 32.9008L44.1654 33.5888L42.7893 47.1577L45.5416 47.3503V52.1668H26.2756V47.3503H29.3719L27.3077 33.9329L29.3719 32.9008L32.8122 47.0062H38.6608L42.4452 32.9008Z" fill="#0E5EC1"/>
<path d="M42.1012 57.3274H40.381C41.7666 59.4309 43.1333 60.0797 42.7893 58.5507C46.4717 59.2468 48.9127 59.0729 48.2939 57.6714L42.1012 57.3274Z" fill="#81C9D8"/>
<path d="M50.3582 57.6714C53.0335 55.8931 52.7025 52.3943 51.7342 47.0063L45.5416 48.7264L47.2619 51.8228L42.1014 52.5108L33.8443 56.2952C39.0629 57.6465 42.6147 58.4568 50.3582 57.6714Z" fill="#FDD2B9"/>
<path d="M31.0921 52.1668H32.8123C31.4267 50.0633 30.06 49.4145 30.404 50.9435C27.6518 50.4466 25.5208 50.6046 24.8994 51.8228L31.0921 52.1668Z" fill="#81C9D8"/>
<path d="M24.5554 51.8227C26.4287 51.6049 26.4119 50.497 26.2756 49.0705L20.771 47.3503C19.3483 53.1271 19.8038 55.5078 22.1471 57.6714C30.5467 57.8486 34.9432 56.4985 42.4453 52.5108C40.3794 51.9611 39.1806 51.8731 36.9407 52.1668L24.5554 51.8227Z" fill="#FDD2B9"/>
<path d="M33.5003 56.2952C37.2458 55.5575 39.5606 54.649 42.1012 52.5108C42.1012 52.5108 42.1012 53.1989 39.3489 54.9191C36.5967 56.6392 33.5003 56.2952 33.5003 56.2952Z" fill="#DB9A75"/>
<path d="M38.6609 47.3503L42.4453 32.9008L39.3489 31.8687C36.523 37.5893 35.351 36.4395 33.5003 31.8687L29.3719 32.9008L32.8123 47.3503H38.6609Z" fill="white"/>
<path d="M29.0278 44.598L27.3077 33.9329C24.6269 34.6746 23.1704 37.6113 21.459 44.598L27.9957 46.3182L29.0278 44.598Z" fill="white"/>
<path d="M44.5095 45.9742L43.1333 43.91L44.1654 33.5889C47.3079 33.7507 49.0222 36.5953 51.0461 44.254L44.5095 45.9742Z" fill="white"/>
<path d="M27.6517 49.4145L28.3398 46.3182L21.115 44.254L20.427 47.3503L27.6517 49.4145Z" fill="white"/>
<path d="M52.0782 47.0062L51.3902 43.9099L44.1654 45.9741L44.8535 49.0704L52.0782 47.0062Z" fill="white"/>
<path d="M29.8521 19.824C34.2826 16.2408 37.5998 16.6022 42.2956 19.0855C42.7385 21.3776 43.1924 24.0535 41.7921 27.9345C38.193 34.1828 34.0197 33.5334 30.8474 28.2462C29.6496 25.9756 29.5918 22.9176 29.8521 19.824Z" fill="#FDD2B9"/>
<path d="M43.4185 21.5936C38.3867 18.1257 35.2147 17.9332 29.4097 21.827C28.8022 21.8746 28.5095 21.3207 28.5203 20.835C28.5126 18.426 28.418 15.8796 29.2985 14.5333C32.8958 9.03351 45.224 8.15966 44.5859 20.835C44.5478 21.5926 44.2133 22.1413 43.4185 21.5936Z" fill="#029BF6"/>
<path d="M31.2364 22.1767C30.461 22.6376 29.3868 22.6391 28.9244 21.7143C32.2232 16.2753 40.293 15.9047 44.5308 21.3675C44.1599 22.5565 43.758 22.7544 42.45 22.1767C37.8601 19.4331 35.4122 19.5393 31.2364 22.1767Z" fill="#26498C"/>
<path d="M35.9954 10.7431C36.5161 10.6983 36.8346 10.7068 37.4205 10.7431V17.4817H35.9954V10.7431Z" fill="#26498C"/>
<path d="M39.9144 28.1697H33.5015C33.5015 28.1697 34.5703 30.3693 36.1735 30.6443C37.7767 30.9192 39.9144 28.1697 39.9144 28.1697Z" fill="white"/>
<ellipse cx="29.561" cy="24.3647" rx="1.24213" ry="1.88143" transform="rotate(-36.3851 29.561 24.3647)" fill="#FDD2B9"/>
<ellipse rx="1.25997" ry="1.90845" transform="matrix(-0.805048 -0.593209 -0.593209 0.805048 42.7733 24.3969)" fill="#FDD2B9"/>
<path d="M39.2018 31.198C37.1385 31.987 35.9088 32.1062 33.5015 31.3761C33.5015 31.3761 35.1047 32.8012 36.3517 32.8012C37.5986 32.8012 39.2018 31.198 39.2018 31.198Z" fill="#DB9A75"/>
<path d="M30.2951 24.4289C30.1651 23.417 30.1119 22.8739 30.4732 22.4694C29.3491 22.2792 29.0481 21.7569 28.5137 21.2225L30.2951 24.4289Z" fill="#372501"/>
<path d="M42.5864 24.4289C42.6802 23.5941 42.7209 23.1261 42.5864 22.2913C42.7645 22.2913 43.6552 22.6476 44.1896 22.1132L42.5864 24.4289Z" fill="#372501"/>
</svg>
