<svg width="73" height="68" viewBox="0 0 73 68" fill="none" xmlns="http://www.w3.org/2000/svg">
<rect y="-6.10352e-05" width="73" height="68" rx="5" fill="white"/>
<path d="M10.517 52.4718C8.4427 52.1502 7.18486 49.6687 7.48538 47.1653C8.0963 12.8208 60.3873 3.98579 67 47.1653C66.9084 51.7199 65.7538 52.6172 62.5324 52.4718C62.5324 52.4718 12.5912 52.7935 10.517 52.4718Z" fill="#0E5EC1"/>
<path d="M9.5567 49.1595C10.2516 12.6471 63.5314 11.5583 63.8214 49.1595H9.5567Z" fill="#23A6F4"/>
<path d="M22.3286 43.9661C19.5251 45.6313 18.4154 45.5216 17.7618 42.335C24.9743 25.3125 48.0526 21.8727 57.885 42.335C57.409 45.0798 56.2215 45.3011 53.6443 43.9661C46.5264 28.5221 27.651 30.2422 22.3286 43.9661Z" fill="#C2DDEB"/>
<rect x="22.6945" y="30.938" width="1.13115" height="6.29807" rx="0.565577" transform="rotate(-39.8123 22.6945 30.938)" fill="#C2DDEB"/>
<rect x="25.5281" y="28.4637" width="1.13115" height="6.29807" rx="0.565577" transform="rotate(-26.2573 25.5281 28.4637)" fill="#C2DDEB"/>
<path d="M28.2003 37.6051L34.7244 47.5543L37.1709 45.9233L29.5051 36.7896C23.4565 29.5761 23.4372 30.1165 28.2003 37.6051Z" fill="white"/>
<path d="M33.7458 49.5115C33.7458 44.2923 42.0641 44.2923 42.0641 49.5115H33.7458Z" fill="white"/>
<rect x="17.8151" y="31.775" width="1.13115" height="6.29807" rx="0.565577" transform="rotate(-47.7301 17.8151 31.775)" fill="#C2DDEB"/>
<rect x="17.4356" y="36.457" width="1.13115" height="6.29807" rx="0.565577" transform="rotate(-59.2565 17.4356 36.457)" fill="#C2DDEB"/>
<rect x="15.4784" y="39.7591" width="1.13115" height="6.29807" rx="0.565577" transform="rotate(-63.4929 15.4784 39.7591)" fill="#C2DDEB"/>
<rect x="42.2072" y="25.4666" width="1.13115" height="6.29807" rx="0.565576" transform="rotate(6.31511 42.2072 25.4666)" fill="#C2DDEB"/>
<rect x="45.9548" y="25.7946" width="1.13115" height="6.29807" rx="0.565576" transform="rotate(19.8702 45.9548 25.7946)" fill="#C2DDEB"/>
<rect x="38.2221" y="22.5292" width="1.13115" height="6.29808" rx="0.565577" transform="rotate(-1.60267 38.2221 22.5292)" fill="#C2DDEB"/>
<rect x="34.584" y="25.5006" width="1.13115" height="6.29807" rx="0.565577" transform="rotate(-13.129 34.584 25.5006)" fill="#C2DDEB"/>
<rect x="30.847" y="26.3783" width="1.13115" height="6.29807" rx="0.565577" transform="rotate(-17.3655 30.847 26.3783)" fill="#C2DDEB"/>
<rect x="57.7358" y="36.1028" width="1.13115" height="6.29807" rx="0.565577" transform="rotate(58.7347 57.7358 36.1028)" fill="#C2DDEB"/>
<rect x="59.7614" y="39.2728" width="1.13115" height="6.29807" rx="0.565577" transform="rotate(72.2897 59.7614 39.2728)" fill="#C2DDEB"/>
<rect x="57.6332" y="31.1532" width="1.13115" height="6.29807" rx="0.565577" transform="rotate(50.8169 57.6332 31.1532)" fill="#C2DDEB"/>
<rect x="53.0596" y="30.0822" width="1.13115" height="6.29808" rx="0.565577" transform="rotate(39.2905 53.0596 30.0822)" fill="#C2DDEB"/>
<rect x="50.0851" y="27.6559" width="1.13115" height="6.29807" rx="0.565577" transform="rotate(35.0541 50.0851 27.6559)" fill="#C2DDEB"/>
</svg>
