<svg width="55" height="35" viewBox="0 0 55 35" fill="none" xmlns="http://www.w3.org/2000/svg">
<rect width="55" height="35" rx="10" transform="matrix(-1 0 0 1 55 0)" fill="#0C5CBF"/>
<path d="M29.2267 9.2666L28.1427 8.18262C27.6837 7.72363 26.9415 7.72363 26.4874 8.18262L16.9952 17.6699C16.5363 18.1289 16.5363 18.8711 16.9952 19.3252L26.4874 28.8174C26.9464 29.2764 27.6886 29.2764 28.1427 28.8174L29.2267 27.7334C29.6906 27.2695 29.6808 26.5127 29.2072 26.0586L23.3234 20.4531H37.3566C38.006 20.4531 38.5284 19.9307 38.5284 19.2813V17.7188C38.5284 17.0693 38.006 16.5469 37.3566 16.5469H23.3234L29.2072 10.9414C29.6857 10.4873 29.6954 9.73047 29.2267 9.2666Z" fill="white"/>
</svg>
