<svg width="73" height="68" viewBox="0 0 73 68" fill="none" xmlns="http://www.w3.org/2000/svg">
<rect width="73" height="68" rx="5" fill="white"/>
<path d="M33.1522 1.93916L53.4782 17.4826V61.1239H33.1522V1.93916Z" fill="#81C9D8"/>
<path d="M12.3478 41.8735V60.7652L31.4783 61.1239V17.2435C22.3397 24.4398 12.3478 37.0181 12.3478 41.8735Z" fill="#81C9D8"/>
<path d="M45.3478 25.1348L59.337 29.6783V60.8848H45.3478V25.1348Z" fill="#147AD0"/>
<path d="M32.913 28.7218L43.7935 25.1348V61.0044H32.913V28.7218Z" fill="#23A6F4"/>
<rect x="9" y="60.7653" width="55" height="4.78261" fill="#0E5EC1"/>
<path d="M34.9456 27.1674V24.1783L44.9891 20.95L56.9456 24.8957V27.8848C56.9456 27.8848 48.9746 25.4935 44.9891 23.9392L34.9456 27.1674Z" fill="#147AD0"/>
<path d="M14.9783 41.2761L31.1196 37.3305L31.4783 60.7652H14.9783V41.2761Z" fill="#029BF6"/>
<path d="M17.3696 36.674L31 33.2653V36.674L17.3696 39.9609V36.674Z" fill="#029BF6"/>
<path d="M34.587 31.1131L42.1196 28.7218V32.0696L34.587 34.4609V31.1131Z" fill="white"/>
<path d="M34.587 36.1348L41.8805 34.4609V37.6892L34.587 39.2435V36.1348Z" fill="white"/>
<path d="M34.587 41.037L42 39.7218V43.0696L34.587 44.5044V41.037Z" fill="white"/>
<path d="M34.587 46.0587L42 45.2218V48.8087L34.587 49.4065V46.0587Z" fill="white"/>
<path d="M34.587 51.5587L42 51.0805V54.5479L34.587 54.9065V51.5587Z" fill="white"/>
<rect x="34.587" y="56.9392" width="7.41304" height="3.58696" fill="white"/>
<path d="M15.9348 43.7623L20 42.5913V58.8522L15.9348 58.4935V43.7623Z" fill="white"/>
<path d="M20.9565 42.7138L25.0218 41.8739V59.0913L20.9565 58.8522V42.7138Z" fill="white"/>
<path d="M26.2174 41.6199L30.0435 40.6783V59.3305L26.2174 59.0913V41.6199Z" fill="white"/>
<path d="M34.9456 27.1674V24.1783L44.9891 20.95V23.9392L34.9456 27.1674Z" fill="#23A6F4"/>
<path d="M47.1021 29.136L47.0072 29.8253L46.7803 29.7668L47.0225 28.0061L47.6573 28.1696C47.8456 28.2181 47.9862 28.3053 48.0791 28.4311C48.1727 28.557 48.2084 28.701 48.1861 28.8631C48.1626 29.034 48.0921 29.1523 47.9745 29.218C47.8578 29.2831 47.7022 29.2906 47.5075 29.2405L47.1021 29.136ZM47.1282 28.9461L47.536 29.0512C47.6574 29.0825 47.7543 29.0774 47.827 29.036C47.8997 28.9938 47.9436 28.9175 47.9588 28.807C47.9732 28.7022 47.9525 28.6101 47.8965 28.5305C47.8405 28.451 47.7563 28.3955 47.644 28.364L47.2232 28.2556L47.1282 28.9461ZM49.3924 29.5971L48.6465 29.4049L48.5606 30.0289L49.4271 30.2522L49.401 30.442L48.3076 30.1603L48.5497 28.3996L49.6314 28.6782L49.6051 28.8693L48.7504 28.6491L48.6726 29.2151L49.4185 29.4073L49.3924 29.5971ZM50.4127 29.9652L50.0085 29.861L49.9105 30.5733L49.6823 30.5145L49.9245 28.7538L50.4943 28.9006C50.6882 28.9505 50.8309 29.034 50.9225 29.1511C51.0149 29.2684 51.0492 29.4134 51.0255 29.5859C51.0104 29.6955 50.9681 29.7836 50.8986 29.85C50.8299 29.9166 50.7411 29.9567 50.6323 29.9704L50.9338 30.8219L50.9318 30.8365L50.6883 30.7737L50.4127 29.9652ZM50.0346 29.6712L50.3833 29.761C50.496 29.79 50.5895 29.7833 50.6639 29.7407C50.7391 29.6983 50.7836 29.6271 50.7973 29.5271C50.8123 29.4183 50.7919 29.3266 50.736 29.2521C50.681 29.1778 50.5936 29.1248 50.4739 29.0932L50.1264 29.0036L50.0346 29.6712ZM52.6292 29.4506L52.4645 30.6478C52.4409 30.8137 52.3709 30.9364 52.2548 31.0158C52.1394 31.0954 51.9941 31.1193 51.8189 31.0876L51.7583 31.0745C51.57 31.0259 51.427 30.9352 51.3294 30.8024C51.2318 30.6696 51.1947 30.5119 51.2182 30.3292L51.3832 29.1296L51.6078 29.1875L51.4438 30.3799C51.4263 30.5072 51.4469 30.6152 51.5057 30.7038C51.5647 30.7917 51.6576 30.8519 51.7844 30.8846C51.9129 30.9177 52.0158 30.9079 52.0932 30.8552C52.1715 30.8027 52.2193 30.7128 52.2368 30.5854L52.401 29.3918L52.6292 29.4506ZM53.2805 29.6184L53.6456 31.2001L54.4059 29.9084L54.7002 29.9842L54.458 31.745L54.231 31.6865L54.3254 31.0008L54.4484 30.2662L53.6873 31.5464L53.5135 31.5016L53.1453 29.9342L53.0664 30.6765L52.9721 31.3621L52.7452 31.3037L52.9873 29.5429L53.2805 29.6184ZM54.8587 31.8482L55.1009 30.0875L55.5868 30.2126C55.7365 30.2512 55.8642 30.3192 55.97 30.4166C56.0757 30.5139 56.1511 30.6331 56.1962 30.7741C56.2421 30.9153 56.2542 31.067 56.2327 31.2293L56.2173 31.3418C56.1944 31.5078 56.1429 31.6452 56.0627 31.754C55.9832 31.8629 55.8806 31.9358 55.7547 31.9726C55.6297 32.0097 55.4898 32.0092 55.3351 31.971L54.8587 31.8482ZM55.3016 30.337L55.1118 31.7168L55.3506 31.7784C55.5256 31.8234 55.6691 31.8028 55.7814 31.7166C55.8944 31.6305 55.9651 31.4846 55.9933 31.2791L56.0075 31.1763C56.035 30.9763 56.0102 30.8093 55.9332 30.675C55.8571 30.5402 55.7348 30.4503 55.5664 30.4052L55.3016 30.337ZM57.4351 32.0362L56.714 31.8504L56.4889 32.2682L56.2548 32.2079L57.1542 30.6165L57.3528 30.6677L57.7691 32.5981L57.5362 32.5381L57.4351 32.0362ZM56.8089 31.677L57.394 31.8278L57.2141 30.9287L56.8089 31.677Z" fill="white"/>
</svg>
