<svg width="73" height="68" viewBox="0 0 73 68" fill="none" xmlns="http://www.w3.org/2000/svg">
<rect y="-3.05176e-05" width="73" height="68" rx="5" fill="white"/>
<path d="M16 37C19.3094 37 22 34.3094 22 31C22 27.6906 19.3094 25 16 25C12.6906 25 10 27.6906 10 31C10 34.3094 12.6906 37 16 37ZM58 37C61.3094 37 64 34.3094 64 31C64 27.6906 61.3094 25 58 25C54.6906 25 52 27.6906 52 31C52 34.3094 54.6906 37 58 37ZM61 40H55C53.35 40 51.8594 40.6656 50.7719 41.7438C54.55 43.8156 57.2313 47.5562 57.8125 52H64C65.6594 52 67 50.6594 67 49V46C67 42.6906 64.3094 40 61 40ZM37 40C42.8031 40 47.5 35.3031 47.5 29.5C47.5 23.6969 42.8031 19 37 19C31.1969 19 26.5 23.6969 26.5 29.5C26.5 35.3031 31.1969 40 37 40ZM44.2 43H43.4219C41.4719 43.9375 39.3063 44.5 37 44.5C34.6938 44.5 32.5375 43.9375 30.5781 43H29.8C23.8375 43 19 47.8375 19 53.8V56.5C19 58.9844 21.0156 61 23.5 61H50.5C52.9844 61 55 58.9844 55 56.5V53.8C55 47.8375 50.1625 43 44.2 43ZM23.2281 41.7438C22.1406 40.6656 20.65 40 19 40H13C9.69063 40 7 42.6906 7 46V49C7 50.6594 8.34062 52 10 52H16.1781C16.7688 47.5562 19.45 43.8156 23.2281 41.7438Z" fill="url(#paint0_linear)"/>
<defs>
<linearGradient id="paint0_linear" x1="37" y1="19" x2="37" y2="98" gradientUnits="userSpaceOnUse">
<stop stop-color="#029BF6"/>
<stop offset="1" stop-color="#0C5CBF"/>
</linearGradient>
</defs>
</svg>
