<svg width="51" height="44" viewBox="0 0 51 44" fill="none" xmlns="http://www.w3.org/2000/svg">
<path d="M38.2676 13.33L30.0645 21.5331C29.332 22.2656 28.0625 21.7529 28.0625 20.7031V16.0156H21.4219C20.7725 16.0156 20.25 15.4931 20.25 14.8437V10.1562C20.25 9.50678 20.7725 8.98431 21.4219 8.98431H28.0625V4.29681C28.0625 3.25189 29.3271 2.73431 30.0645 3.46674L38.2676 11.6699C38.7217 12.1288 38.7217 12.871 38.2676 13.33ZM23.375 21.289V19.3359C23.375 19.0136 23.1113 18.7499 22.7891 18.7499H18.6875C17.8232 18.7499 17.125 18.0517 17.125 17.1874V7.81244C17.125 6.94818 17.8232 6.24994 18.6875 6.24994H22.7891C23.1113 6.24994 23.375 5.98627 23.375 5.664V3.71088C23.375 3.38861 23.1113 3.12494 22.7891 3.12494H18.6875C16.0996 3.12494 14 5.22455 14 7.81244V17.1874C14 19.7753 16.0996 21.8749 18.6875 21.8749H22.7891C23.1113 21.8749 23.375 21.6113 23.375 21.289Z" fill="white"/>
<path d="M3.72656 38.1172H8.70312V40H1.38281V28.625H3.72656V38.1172ZM9.55469 35.6953C9.55469 34.8568 9.71615 34.1094 10.0391 33.4531C10.362 32.7969 10.8255 32.2891 11.4297 31.9297C12.0391 31.5703 12.7448 31.3906 13.5469 31.3906C14.6875 31.3906 15.6172 31.7396 16.3359 32.4375C17.0599 33.1354 17.4635 34.0833 17.5469 35.2812L17.5625 35.8594C17.5625 37.1562 17.2005 38.1979 16.4766 38.9844C15.7526 39.7656 14.7812 40.1562 13.5625 40.1562C12.3438 40.1562 11.3698 39.7656 10.6406 38.9844C9.91667 38.2031 9.55469 37.1406 9.55469 35.7969V35.6953ZM11.8125 35.8594C11.8125 36.6615 11.9635 37.276 12.2656 37.7031C12.5677 38.125 13 38.3359 13.5625 38.3359C14.1094 38.3359 14.5365 38.1276 14.8438 37.7109C15.151 37.2891 15.3047 36.6172 15.3047 35.6953C15.3047 34.9089 15.151 34.2995 14.8438 33.8672C14.5365 33.4349 14.1042 33.2188 13.5469 33.2188C12.9948 33.2188 12.5677 33.4349 12.2656 33.8672C11.9635 34.2943 11.8125 34.9583 11.8125 35.8594ZM18.625 35.7109C18.625 34.4141 18.9323 33.3698 19.5469 32.5781C20.1667 31.7865 21 31.3906 22.0469 31.3906C22.974 31.3906 23.6953 31.7083 24.2109 32.3438L24.3047 31.5469H26.3516V39.7188C26.3516 40.4583 26.1823 41.1016 25.8438 41.6484C25.5104 42.1953 25.0391 42.612 24.4297 42.8984C23.8203 43.1849 23.1068 43.3281 22.2891 43.3281C21.6693 43.3281 21.0651 43.2031 20.4766 42.9531C19.888 42.7083 19.4427 42.3906 19.1406 42L20.1406 40.625C20.7031 41.2552 21.3854 41.5703 22.1875 41.5703C22.7865 41.5703 23.2526 41.4089 23.5859 41.0859C23.9193 40.7682 24.0859 40.3151 24.0859 39.7266V39.2734C23.5651 39.862 22.8802 40.1562 22.0312 40.1562C21.0156 40.1562 20.1927 39.7604 19.5625 38.9688C18.9375 38.1719 18.625 37.1172 18.625 35.8047V35.7109ZM20.8828 35.875C20.8828 36.6406 21.0365 37.2422 21.3438 37.6797C21.651 38.112 22.0729 38.3281 22.6094 38.3281C23.2969 38.3281 23.7891 38.0703 24.0859 37.5547V34C23.7839 33.4844 23.2969 33.2266 22.625 33.2266C22.0833 33.2266 21.6562 33.4479 21.3438 33.8906C21.0365 34.3333 20.8828 34.9948 20.8828 35.875ZM27.7422 35.6953C27.7422 34.8568 27.9036 34.1094 28.2266 33.4531C28.5495 32.7969 29.013 32.2891 29.6172 31.9297C30.2266 31.5703 30.9323 31.3906 31.7344 31.3906C32.875 31.3906 33.8047 31.7396 34.5234 32.4375C35.2474 33.1354 35.651 34.0833 35.7344 35.2812L35.75 35.8594C35.75 37.1562 35.388 38.1979 34.6641 38.9844C33.9401 39.7656 32.9688 40.1562 31.75 40.1562C30.5312 40.1562 29.5573 39.7656 28.8281 38.9844C28.1042 38.2031 27.7422 37.1406 27.7422 35.7969V35.6953ZM30 35.8594C30 36.6615 30.151 37.276 30.4531 37.7031C30.7552 38.125 31.1875 38.3359 31.75 38.3359C32.2969 38.3359 32.724 38.1276 33.0312 37.7109C33.3385 37.2891 33.4922 36.6172 33.4922 35.6953C33.4922 34.9089 33.3385 34.2995 33.0312 33.8672C32.724 33.4349 32.2917 33.2188 31.7344 33.2188C31.1823 33.2188 30.7552 33.4349 30.4531 33.8672C30.151 34.2943 30 34.9583 30 35.8594ZM42.2031 39.1406C41.6458 39.8177 40.875 40.1562 39.8906 40.1562C38.9844 40.1562 38.2917 39.8958 37.8125 39.375C37.3385 38.8542 37.0964 38.0911 37.0859 37.0859V31.5469H39.3438V37.0078C39.3438 37.888 39.7448 38.3281 40.5469 38.3281C41.3125 38.3281 41.8385 38.0625 42.125 37.5312V31.5469H44.3906V40H42.2656L42.2031 39.1406ZM48.7969 29.4688V31.5469H50.2422V33.2031H48.7969V37.4219C48.7969 37.7344 48.8568 37.9583 48.9766 38.0938C49.0964 38.2292 49.3255 38.2969 49.6641 38.2969C49.9141 38.2969 50.1354 38.2786 50.3281 38.2422V39.9531C49.8854 40.0885 49.4297 40.1562 48.9609 40.1562C47.3776 40.1562 46.5703 39.3568 46.5391 37.7578V33.2031H45.3047V31.5469H46.5391V29.4688H48.7969Z" fill="white"/>
</svg>
