<svg width="73" height="68" viewBox="0 0 73 68" fill="none" xmlns="http://www.w3.org/2000/svg">
<rect width="73" height="68" rx="5" fill="white"/>
<path d="M34.5214 14.3995L51.4634 19.902V57.6957H34.5214V14.3995Z" fill="#147AD0"/>
<path d="M19.4618 18.7436L32.6389 14.3995V57.8405H19.4618V18.7436Z" fill="#23A6F4"/>
<rect x="17.0001" y="57.5182" width="36.8359" height="5.82483" fill="#0E5EC1"/>
<path d="M21.9235 16.8611V13.2411L34.087 9.33136L48.5673 14.1099V17.73C48.5673 17.73 38.9137 14.8339 34.087 12.9514L21.9235 16.8611Z" fill="#147AD0"/>
<path d="M21.489 21.6397L30.6116 18.7437V22.7981L21.489 25.6942V21.6397Z" fill="white"/>
<path d="M21.489 27.7214L30.322 25.6942V29.6038L21.489 31.4863V27.7214Z" fill="white"/>
<path d="M21.489 33.6583L30.4668 32.0655V36.12L21.489 37.8576V33.6583Z" fill="white"/>
<path d="M21.489 39.7401L30.4668 38.7265V43.0706L21.489 43.7946V39.7401Z" fill="white"/>
<path d="M21.489 46.4011L30.4668 45.8218V50.0211L21.489 50.4555V46.4011Z" fill="white"/>
<rect x="21.489" y="52.9172" width="8.97781" height="4.3441" fill="white"/>
<path d="M21.9235 16.8611V13.2411L34.087 9.33136V12.9514L21.9235 16.8611Z" fill="#23A6F4"/>
<path d="M37.7775 18.0434L37.6827 18.7327L37.4558 18.6742L37.698 16.9134L38.3328 17.077C38.5211 17.1255 38.6617 17.2127 38.7546 17.3384C38.8482 17.4644 38.8839 17.6084 38.8616 17.7705C38.8381 17.9414 38.7676 18.0597 38.65 18.1254C38.5333 18.1905 38.3777 18.198 38.183 18.1478L37.7775 18.0434ZM37.8037 17.8535L38.2115 17.9586C38.3329 17.9899 38.4298 17.9848 38.5024 17.9434C38.5752 17.9012 38.6191 17.8249 38.6343 17.7144C38.6487 17.6096 38.6279 17.5174 38.572 17.4379C38.516 17.3584 38.4318 17.3029 38.3195 17.2714L37.8986 17.163L37.8037 17.8535ZM40.0679 18.5045L39.322 18.3123L39.2361 18.9363L40.1026 19.1596L40.0765 19.3494L38.983 19.0677L39.2252 17.3069L40.3069 17.5856L40.2806 17.7767L39.4259 17.5565L39.3481 18.1225L40.094 18.3146L40.0679 18.5045ZM41.0882 18.8726L40.6839 18.7684L40.586 19.4807L40.3578 19.4219L40.6 17.6612L41.1698 17.808C41.3637 17.8579 41.5064 17.9414 41.598 18.0585C41.6904 18.1758 41.7247 18.3207 41.701 18.4933C41.6859 18.6029 41.6436 18.6909 41.5741 18.7573C41.5054 18.8239 41.4166 18.8641 41.3078 18.8778L41.6093 19.7293L41.6073 19.7438L41.3638 19.6811L41.0882 18.8726ZM40.7101 18.5786L41.0588 18.6684C41.1715 18.6974 41.265 18.6906 41.3394 18.648C41.4146 18.6056 41.4591 18.5345 41.4728 18.4345C41.4878 18.3256 41.4674 18.234 41.4115 18.1595C41.3565 18.0852 41.2691 18.0322 41.1494 18.0006L40.8019 17.911L40.7101 18.5786ZM43.3047 18.358L43.14 19.5552C43.1163 19.7211 43.0464 19.8437 42.9302 19.9232C42.8148 20.0028 42.6696 20.0267 42.4944 19.995L42.4338 19.9818C42.2455 19.9333 42.1025 19.8426 42.0049 19.7098C41.9073 19.577 41.8702 19.4192 41.8937 19.2366L42.0587 18.037L42.2833 18.0949L42.1193 19.2872C42.1018 19.4146 42.1224 19.5226 42.1812 19.6112C42.2401 19.699 42.333 19.7593 42.4599 19.792C42.5884 19.8251 42.6913 19.8153 42.7687 19.7626C42.8469 19.7101 42.8948 19.6202 42.9123 19.4928L43.0765 18.2992L43.3047 18.358ZM43.956 18.5258L44.3211 20.1075L45.0814 18.8158L45.3757 18.8916L45.1335 20.6524L44.9065 20.5939L45.0009 19.9082L45.1239 19.1736L44.3628 20.4538L44.189 20.409L43.8208 18.8416L43.7419 19.5838L43.6476 20.2695L43.4206 20.211L43.6628 18.4503L43.956 18.5258ZM45.5342 20.7556L45.7764 18.9948L46.2623 19.12C46.412 19.1586 46.5397 19.2266 46.6455 19.3239C46.7512 19.4213 46.8266 19.5405 46.8717 19.6815C46.9176 19.8227 46.9297 19.9744 46.9082 20.1367L46.8928 20.2491C46.8699 20.4152 46.8184 20.5526 46.7381 20.6613C46.6587 20.7703 46.5561 20.8432 46.4302 20.88C46.3052 20.9171 46.1653 20.9165 46.0106 20.8784L45.5342 20.7556ZM45.9771 19.2444L45.7873 20.6242L46.0261 20.6857C46.201 20.7308 46.3446 20.7102 46.4569 20.6239C46.5699 20.5379 46.6405 20.392 46.6688 20.1864L46.683 20.0837C46.7105 19.8837 46.6857 19.7166 46.6087 19.5824C46.5326 19.4476 46.4103 19.3577 46.2419 19.3126L45.9771 19.2444ZM48.1106 20.9436L47.3895 20.7578L47.1643 21.1756L46.9303 21.1153L47.8297 19.5239L48.0283 19.575L48.4446 21.5055L48.2117 21.4455L48.1106 20.9436ZM47.4843 20.5844L48.0695 20.7351L47.8896 19.8361L47.4843 20.5844Z" fill="white"/>
</svg>
