<svg width="77" height="110" viewBox="0 0 77 110" fill="none" xmlns="http://www.w3.org/2000/svg">
<rect width="75" height="75" rx="5" fill="url(#paint0_linear)"/>
<path d="M47.9429 31.3125C45.0602 29.2865 41.512 30.0368 38.0054 38.625C31.5851 38.625 26.3804 33.3364 26.3804 26.8125C26.3804 20.2886 31.5851 15 38.0054 15C44.4257 15 52.2554 21.5625 47.9429 31.3125Z" fill="url(#paint1_linear)"/>
<path d="M44.1929 46.125C44.777 44.672 44.7933 43.7732 44.1929 42L41.0054 40.125C41.4108 36.6688 42.306 35.2427 44.9429 33.1875L48.1304 34.875C49.8202 34.6798 50.6318 34.2925 51.8804 33.1875V29.25C55.034 28.5044 56.7605 28.5255 59.7554 29.25V32.625C60.5819 34.0577 61.4391 34.4746 63.3179 34.875L66.5054 33.1875C69.0195 35.5984 69.7955 37.1594 70.6304 40.125L67.2554 42C66.3713 43.7933 66.5487 44.6599 67.2554 46.125L70.6304 48.1875C69.9356 51.4208 69.0326 52.9182 66.5054 54.5625L63.3179 52.875C61.4777 53.0543 60.684 53.5285 59.7554 55.125V58.5C56.8285 59.4423 55.1323 59.6199 51.8804 58.5V55.125C51.1085 53.8706 50.6674 53.1717 48.1304 52.875L44.9429 54.5625C42.2077 52.6669 41.4848 51.1523 41.0054 48L44.1929 46.125Z" fill="#0076B6" stroke="white"/>
<circle cx="55.8179" cy="44.0625" r="6.1875" fill="white"/>
<circle cx="55.8179" cy="44.0625" r="5.0625" fill="#8DE1F2"/>
<path d="M40.8179 43.5L39.1304 42.375C37.8179 41.625 34.4429 43.5 31.0679 40.6875C16.4045 42.028 15.4536 57.1937 22.6304 60H49.2554C48.6058 59.0116 48.5231 58.3856 48.6929 57.1875L47.9429 56.625C42.2329 61.6348 33.9067 46.7201 40.8179 44.25C40.8517 43.9344 40.8602 43.7644 40.8179 43.5Z" fill="url(#paint2_linear)"/>
<path d="M23.1929 39.375C18.2085 42.3999 17.2026 45.223 15.6929 50.4375H8.56789C5.05366 50.1563 2.45034 39.0443 11.7554 37.5C18.6674 37.1676 21.2676 37.5364 23.1929 39.375Z" fill="#26498C"/>
<circle cx="15.5054" cy="27.75" r="6.375" fill="#26498C"/>
<path d="M29.5117 82.7578V89.042C29.5075 89.9137 29.2324 90.6268 28.6865 91.1812C28.1449 91.7355 27.4085 92.0465 26.4775 92.1143L26.1538 92.127C25.1424 92.127 24.3363 91.854 23.7354 91.3081C23.1344 90.7622 22.8298 90.0111 22.8213 89.0547V82.7578H24.0273V89.0166C24.0273 89.6852 24.2114 90.2057 24.5796 90.5781C24.9478 90.9463 25.4725 91.1304 26.1538 91.1304C26.8436 91.1304 27.3704 90.9463 27.7344 90.5781C28.1025 90.21 28.2866 89.6916 28.2866 89.0229V82.7578H29.5117ZM35.25 90.1782C35.25 89.8608 35.1294 89.6154 34.8882 89.4419C34.6512 89.2642 34.2344 89.1118 33.6377 88.9849C33.0452 88.8579 32.5734 88.7056 32.2222 88.5278C31.8752 88.3501 31.617 88.1385 31.4478 87.8931C31.2827 87.6476 31.2002 87.3556 31.2002 87.0171C31.2002 86.4543 31.4372 85.9782 31.9111 85.5889C32.3893 85.1995 32.9987 85.0049 33.7393 85.0049C34.5179 85.0049 35.1484 85.2059 35.6309 85.6079C36.1175 86.0099 36.3608 86.5241 36.3608 87.1504H35.1802C35.1802 86.8288 35.0426 86.5516 34.7676 86.3188C34.4967 86.0861 34.154 85.9697 33.7393 85.9697C33.3118 85.9697 32.9775 86.0628 32.7363 86.249C32.4951 86.4352 32.3745 86.6785 32.3745 86.979C32.3745 87.2625 32.4867 87.4762 32.7109 87.6201C32.9352 87.764 33.3394 87.9015 33.9233 88.0327C34.5116 88.1639 34.9876 88.3205 35.3516 88.5024C35.7155 88.6844 35.9842 88.9045 36.1577 89.1626C36.3354 89.4165 36.4243 89.7275 36.4243 90.0957C36.4243 90.7093 36.1789 91.2023 35.688 91.5747C35.1971 91.9429 34.5602 92.127 33.7773 92.127C33.2272 92.127 32.7406 92.0296 32.3174 91.835C31.8942 91.6403 31.562 91.3695 31.3208 91.0225C31.0838 90.6712 30.9653 90.2925 30.9653 89.8862H32.1396C32.1608 90.2798 32.3174 90.5929 32.6094 90.8257C32.9056 91.0542 33.2949 91.1685 33.7773 91.1685C34.2217 91.1685 34.5771 91.0796 34.8438 90.9019C35.1146 90.7199 35.25 90.4787 35.25 90.1782ZM40.8042 92.127C39.8732 92.127 39.1157 91.8223 38.5317 91.2129C37.9478 90.5993 37.6558 89.7804 37.6558 88.7563V88.5405C37.6558 87.8592 37.7848 87.252 38.043 86.7188C38.3053 86.1813 38.6693 85.7624 39.1348 85.4619C39.6045 85.1572 40.1123 85.0049 40.6582 85.0049C41.5511 85.0049 42.2451 85.299 42.7402 85.8872C43.2354 86.4754 43.4829 87.3175 43.4829 88.4136V88.9023H38.8301C38.847 89.5794 39.0438 90.1274 39.4204 90.5464C39.8013 90.9611 40.2837 91.1685 40.8677 91.1685C41.2824 91.1685 41.6336 91.0838 41.9214 90.9146C42.2091 90.7453 42.4609 90.521 42.6768 90.2417L43.394 90.8003C42.8185 91.6847 41.9552 92.127 40.8042 92.127ZM40.6582 85.9697C40.1842 85.9697 39.7865 86.1432 39.4648 86.4902C39.1432 86.833 38.9443 87.3154 38.8682 87.9375H42.3086V87.8486C42.2747 87.252 42.1139 86.7907 41.8262 86.4648C41.5384 86.1348 41.1491 85.9697 40.6582 85.9697ZM48.1675 86.1855C47.9897 86.1559 47.7972 86.1411 47.5898 86.1411C46.8197 86.1411 46.297 86.4691 46.022 87.125V92H44.8477V85.1318H45.9902L46.0093 85.9253C46.3944 85.3117 46.9403 85.0049 47.647 85.0049C47.8755 85.0049 48.049 85.0345 48.1675 85.0938V86.1855ZM53.252 90.1782C53.252 89.8608 53.1313 89.6154 52.8901 89.4419C52.6532 89.2642 52.2363 89.1118 51.6396 88.9849C51.0472 88.8579 50.5754 88.7056 50.2241 88.5278C49.8771 88.3501 49.619 88.1385 49.4497 87.8931C49.2847 87.6476 49.2021 87.3556 49.2021 87.0171C49.2021 86.4543 49.4391 85.9782 49.9131 85.5889C50.3913 85.1995 51.0007 85.0049 51.7412 85.0049C52.5199 85.0049 53.1504 85.2059 53.6328 85.6079C54.1195 86.0099 54.3628 86.5241 54.3628 87.1504H53.1821C53.1821 86.8288 53.0446 86.5516 52.7695 86.3188C52.4987 86.0861 52.1559 85.9697 51.7412 85.9697C51.3138 85.9697 50.9795 86.0628 50.7383 86.249C50.4971 86.4352 50.3765 86.6785 50.3765 86.979C50.3765 87.2625 50.4886 87.4762 50.7129 87.6201C50.9372 87.764 51.3413 87.9015 51.9253 88.0327C52.5135 88.1639 52.9896 88.3205 53.3535 88.5024C53.7174 88.6844 53.9862 88.9045 54.1597 89.1626C54.3374 89.4165 54.4263 89.7275 54.4263 90.0957C54.4263 90.7093 54.1808 91.2023 53.6899 91.5747C53.1991 91.9429 52.5622 92.127 51.7793 92.127C51.2292 92.127 50.7425 92.0296 50.3193 91.835C49.8962 91.6403 49.564 91.3695 49.3228 91.0225C49.0858 90.6712 48.9673 90.2925 48.9673 89.8862H50.1416C50.1628 90.2798 50.3193 90.5929 50.6113 90.8257C50.9076 91.0542 51.2969 91.1685 51.7793 91.1685C52.2236 91.1685 52.5791 91.0796 52.8457 90.9019C53.1165 90.7199 53.252 90.4787 53.252 90.1782ZM2.85791 97.7578L5.87939 105.299L8.90088 97.7578H10.4814V107H9.2627V103.401L9.37695 99.5161L6.34277 107H5.40967L2.38184 99.5352L2.50244 103.401V107H1.28369V97.7578H2.85791ZM16.6895 107C16.6217 106.865 16.5667 106.623 16.5244 106.276C15.9785 106.843 15.3268 107.127 14.5693 107.127C13.8923 107.127 13.3358 106.937 12.8999 106.556C12.4683 106.171 12.2524 105.684 12.2524 105.096C12.2524 104.381 12.5233 103.826 13.0649 103.433C13.6108 103.035 14.3768 102.836 15.3628 102.836H16.5054V102.296C16.5054 101.886 16.3826 101.56 16.1372 101.319C15.8918 101.073 15.5299 100.951 15.0518 100.951C14.6328 100.951 14.2816 101.056 13.998 101.268C13.7145 101.48 13.5728 101.736 13.5728 102.036H12.3921C12.3921 101.693 12.5127 101.363 12.7539 101.046C12.9993 100.724 13.3294 100.47 13.7441 100.284C14.1631 100.098 14.6222 100.005 15.1216 100.005C15.9129 100.005 16.5329 100.204 16.9814 100.602C17.43 100.995 17.6628 101.539 17.6797 102.233V105.394C17.6797 106.025 17.7601 106.526 17.9209 106.898V107H16.6895ZM14.7407 106.105C15.1089 106.105 15.458 106.01 15.7881 105.819C16.1182 105.629 16.3573 105.381 16.5054 105.077V103.667H15.585C14.1462 103.667 13.4268 104.089 13.4268 104.931C13.4268 105.299 13.5495 105.587 13.7949 105.794C14.0404 106.001 14.3556 106.105 14.7407 106.105ZM20.6313 100.132L20.6694 100.995C21.1942 100.335 21.8797 100.005 22.7261 100.005C24.1776 100.005 24.9097 100.824 24.9224 102.461V107H23.748V102.455C23.7438 101.96 23.6296 101.594 23.4053 101.357C23.1852 101.12 22.8403 101.001 22.3706 101.001C21.9897 101.001 21.6554 101.103 21.3677 101.306C21.0799 101.509 20.8556 101.776 20.6948 102.106V107H19.5205V100.132H20.6313ZM30.9336 107C30.8659 106.865 30.8109 106.623 30.7686 106.276C30.2227 106.843 29.571 107.127 28.8135 107.127C28.1364 107.127 27.5799 106.937 27.144 106.556C26.7124 106.171 26.4966 105.684 26.4966 105.096C26.4966 104.381 26.7674 103.826 27.3091 103.433C27.855 103.035 28.6209 102.836 29.6069 102.836H30.7495V102.296C30.7495 101.886 30.6268 101.56 30.3813 101.319C30.1359 101.073 29.7741 100.951 29.2959 100.951C28.877 100.951 28.5257 101.056 28.2422 101.268C27.9587 101.48 27.8169 101.736 27.8169 102.036H26.6362C26.6362 101.693 26.7568 101.363 26.998 101.046C27.2435 100.724 27.5736 100.47 27.9883 100.284C28.4072 100.098 28.8664 100.005 29.3657 100.005C30.1571 100.005 30.777 100.204 31.2256 100.602C31.6742 100.995 31.9069 101.539 31.9238 102.233V105.394C31.9238 106.025 32.0042 106.526 32.165 106.898V107H30.9336ZM28.9849 106.105C29.353 106.105 29.7021 106.01 30.0322 105.819C30.3623 105.629 30.6014 105.381 30.7495 105.077V103.667H29.8291C28.3903 103.667 27.6709 104.089 27.6709 104.931C27.6709 105.299 27.7936 105.587 28.0391 105.794C28.2845 106.001 28.5998 106.105 28.9849 106.105ZM33.4854 103.509C33.4854 102.438 33.7329 101.588 34.228 100.957C34.7231 100.322 35.3791 100.005 36.1958 100.005C37.0337 100.005 37.6875 100.301 38.1572 100.894L38.2144 100.132H39.2871V106.835C39.2871 107.724 39.0226 108.424 38.4937 108.936C37.9689 109.448 37.2622 109.704 36.3735 109.704C35.8784 109.704 35.3939 109.598 34.9199 109.387C34.446 109.175 34.0841 108.885 33.8345 108.517L34.4438 107.812C34.9474 108.435 35.5632 108.746 36.291 108.746C36.8623 108.746 37.3066 108.585 37.624 108.263C37.9456 107.942 38.1064 107.489 38.1064 106.905V106.314C37.6367 106.856 36.9956 107.127 36.1831 107.127C35.3791 107.127 34.7274 106.803 34.228 106.156C33.7329 105.508 33.4854 104.626 33.4854 103.509ZM34.666 103.642C34.666 104.417 34.8247 105.026 35.1421 105.47C35.4595 105.91 35.9038 106.13 36.4751 106.13C37.2157 106.13 37.7594 105.794 38.1064 105.121V101.985C37.7467 101.329 37.2072 101.001 36.4878 101.001C35.9165 101.001 35.4701 101.224 35.1484 101.668C34.8268 102.112 34.666 102.77 34.666 103.642ZM43.9146 107.127C42.9836 107.127 42.2261 106.822 41.6421 106.213C41.0581 105.599 40.7661 104.78 40.7661 103.756V103.541C40.7661 102.859 40.8952 102.252 41.1533 101.719C41.4157 101.181 41.7796 100.762 42.2451 100.462C42.7148 100.157 43.2227 100.005 43.7686 100.005C44.6615 100.005 45.3555 100.299 45.8506 100.887C46.3457 101.475 46.5933 102.318 46.5933 103.414V103.902H41.9404C41.9574 104.579 42.1541 105.127 42.5308 105.546C42.9116 105.961 43.394 106.168 43.978 106.168C44.3927 106.168 44.744 106.084 45.0317 105.915C45.3195 105.745 45.5713 105.521 45.7871 105.242L46.5044 105.8C45.9289 106.685 45.0656 107.127 43.9146 107.127ZM43.7686 100.97C43.2946 100.97 42.8968 101.143 42.5752 101.49C42.2536 101.833 42.0547 102.315 41.9785 102.938H45.4189V102.849C45.3851 102.252 45.2243 101.791 44.9365 101.465C44.6488 101.135 44.2594 100.97 43.7686 100.97ZM49.0625 100.132L49.0942 100.894C49.5978 100.301 50.277 100.005 51.1318 100.005C52.0924 100.005 52.7463 100.373 53.0933 101.109C53.3218 100.779 53.618 100.513 53.9819 100.31C54.3501 100.106 54.7839 100.005 55.2832 100.005C56.7897 100.005 57.5557 100.803 57.5811 102.398V107H56.4067V102.468C56.4067 101.977 56.2946 101.611 56.0703 101.37C55.846 101.124 55.4694 101.001 54.9404 101.001C54.5046 101.001 54.1427 101.133 53.855 101.395C53.5672 101.653 53.4001 102.002 53.3535 102.442V107H52.1729V102.5C52.1729 101.501 51.6841 101.001 50.7065 101.001C49.9364 101.001 49.4095 101.329 49.126 101.985V107H47.9517V100.132H49.0625ZM62.2085 107.127C61.2775 107.127 60.52 106.822 59.936 106.213C59.3521 105.599 59.0601 104.78 59.0601 103.756V103.541C59.0601 102.859 59.1891 102.252 59.4473 101.719C59.7096 101.181 60.0736 100.762 60.5391 100.462C61.0088 100.157 61.5166 100.005 62.0625 100.005C62.9554 100.005 63.6494 100.299 64.1445 100.887C64.6396 101.475 64.8872 102.318 64.8872 103.414V103.902H60.2344C60.2513 104.579 60.4481 105.127 60.8247 105.546C61.2056 105.961 61.688 106.168 62.272 106.168C62.6867 106.168 63.0379 106.084 63.3257 105.915C63.6134 105.745 63.8652 105.521 64.0811 105.242L64.7983 105.8C64.2228 106.685 63.3595 107.127 62.2085 107.127ZM62.0625 100.97C61.5885 100.97 61.1908 101.143 60.8691 101.49C60.5475 101.833 60.3486 102.315 60.2725 102.938H63.7129V102.849C63.679 102.252 63.5182 101.791 63.2305 101.465C62.9427 101.135 62.5534 100.97 62.0625 100.97ZM67.3628 100.132L67.4009 100.995C67.9256 100.335 68.6112 100.005 69.4575 100.005C70.909 100.005 71.6411 100.824 71.6538 102.461V107H70.4795V102.455C70.4753 101.96 70.361 101.594 70.1367 101.357C69.9167 101.12 69.5718 101.001 69.1021 101.001C68.7212 101.001 68.3869 101.103 68.0991 101.306C67.8114 101.509 67.5871 101.776 67.4263 102.106V107H66.252V100.132H67.3628ZM75.0181 98.4688V100.132H76.3003V101.04H75.0181V105.299C75.0181 105.574 75.0752 105.781 75.1895 105.921C75.3037 106.056 75.4984 106.124 75.7734 106.124C75.9089 106.124 76.0951 106.099 76.332 106.048V107C76.0231 107.085 75.7227 107.127 75.4307 107.127C74.9059 107.127 74.5103 106.968 74.2437 106.651C73.9771 106.333 73.8438 105.883 73.8438 105.299V101.04H72.5933V100.132H73.8438V98.4688H75.0181Z" fill="#453F3F"/>
<defs>
<linearGradient id="paint0_linear" x1="38" y1="162" x2="38" y2="-26.5" gradientUnits="userSpaceOnUse">
<stop stop-color="#5BBFFB"/>
<stop offset="0.911458" stop-color="white" stop-opacity="0"/>
</linearGradient>
<linearGradient id="paint1_linear" x1="37.7811" y1="15" x2="37.7811" y2="38.625" gradientUnits="userSpaceOnUse">
<stop stop-color="#029BF6"/>
<stop offset="0.927083" stop-color="#1DA0E0"/>
</linearGradient>
<linearGradient id="paint2_linear" x1="33.7644" y1="40.6875" x2="33.7644" y2="60" gradientUnits="userSpaceOnUse">
<stop stop-color="#029BF6"/>
<stop offset="0.927083" stop-color="#1DA0E0"/>
</linearGradient>
</defs>
</svg>
