<svg width="73" height="68" viewBox="0 0 73 68" fill="none" xmlns="http://www.w3.org/2000/svg">
<rect y="-6.10352e-05" width="73" height="68" rx="5" fill="white"/>
<path d="M8.25344 52.4636C6.05934 52.1233 4.72882 49.4985 5.0467 46.8504C5.69292 10.5216 61.0052 1.17607 68 46.8504C67.9031 51.6682 66.6818 52.6173 63.2743 52.4636C63.2743 52.4636 10.4475 52.8038 8.25344 52.4636Z" fill="#0E5EC1"/>
<path d="M7.23773 48.9599C7.97273 10.3378 64.331 9.18614 64.6377 48.9599H7.23773Z" fill="#23A6F4"/>
<path d="M20.7476 43.4663C17.7821 45.2278 16.6083 45.1118 15.9169 41.7411C23.5461 23.735 47.9579 20.0964 58.3583 41.7411C57.8549 44.6444 56.5988 44.8786 53.8726 43.4663C46.3435 27.13 26.3775 28.9496 20.7476 43.4663Z" fill="#C2DDEB"/>
<rect x="21.1345" y="29.6856" width="1.19651" height="6.66197" rx="0.598255" transform="rotate(-39.8123 21.1345 29.6856)" fill="#C2DDEB"/>
<rect x="24.132" y="27.0683" width="1.19651" height="6.66197" rx="0.598255" transform="rotate(-26.2573 24.132 27.0683)" fill="#C2DDEB"/>
<path d="M26.9585 36.7379L33.8596 47.262L36.4475 45.5367L28.3387 35.8752C21.9406 28.2449 21.9203 28.8166 26.9585 36.7379Z" fill="white"/>
<path d="M32.8245 49.3322C32.8245 43.8114 41.6233 43.8114 41.6233 49.3322H32.8245Z" fill="white"/>
<rect x="15.9732" y="30.5709" width="1.19651" height="6.66197" rx="0.598255" transform="rotate(-47.7301 15.9732 30.5709)" fill="#C2DDEB"/>
<rect x="15.5718" y="35.5234" width="1.19651" height="6.66197" rx="0.598255" transform="rotate(-59.2565 15.5718 35.5234)" fill="#C2DDEB"/>
<rect x="13.5015" y="39.0163" width="1.19651" height="6.66197" rx="0.598255" transform="rotate(-63.4929 13.5015 39.0163)" fill="#C2DDEB"/>
<rect x="41.7747" y="23.8981" width="1.19651" height="6.66197" rx="0.598255" transform="rotate(6.31511 41.7747 23.8981)" fill="#C2DDEB"/>
<rect x="45.7388" y="24.245" width="1.19651" height="6.66197" rx="0.598255" transform="rotate(19.8702 45.7388 24.245)" fill="#C2DDEB"/>
<rect x="37.5594" y="20.7908" width="1.19651" height="6.66197" rx="0.598255" transform="rotate(-1.60267 37.5594 20.7908)" fill="#C2DDEB"/>
<rect x="33.711" y="23.9339" width="1.19651" height="6.66197" rx="0.598255" transform="rotate(-13.129 33.711 23.9339)" fill="#C2DDEB"/>
<rect x="29.7582" y="24.8623" width="1.19651" height="6.66197" rx="0.598255" transform="rotate(-17.3655 29.7582 24.8623)" fill="#C2DDEB"/>
<rect x="58.2005" y="35.1488" width="1.19651" height="6.66197" rx="0.598255" transform="rotate(58.7347 58.2005 35.1488)" fill="#C2DDEB"/>
<rect x="60.3432" y="38.5019" width="1.19651" height="6.66197" rx="0.598255" transform="rotate(72.2897 60.3432 38.5019)" fill="#C2DDEB"/>
<rect x="58.092" y="29.9132" width="1.19651" height="6.66197" rx="0.598255" transform="rotate(50.8169 58.092 29.9132)" fill="#C2DDEB"/>
<rect x="53.2542" y="28.7803" width="1.19651" height="6.66197" rx="0.598255" transform="rotate(39.2905 53.2542 28.7803)" fill="#C2DDEB"/>
<rect x="50.1078" y="26.2138" width="1.19651" height="6.66197" rx="0.598255" transform="rotate(35.0541 50.1078 26.2138)" fill="#C2DDEB"/>
</svg>
