<svg width="73" height="68" viewBox="0 0 73 68" fill="none" xmlns="http://www.w3.org/2000/svg">
<rect width="73" height="68" rx="5" fill="white"/>
<path d="M43.75 43.4375C43.75 44.3698 42.9948 45.125 42.0625 45.125H31.9375C31.0052 45.125 30.25 44.3698 30.25 43.4375V38.375H10V53.5625C10 56.2625 12.3625 58.625 15.0625 58.625H58.9375C61.6375 58.625 64 56.2625 64 53.5625V38.375H43.75V43.4375ZM58.9375 21.5H50.5V16.4375C50.5 13.7375 48.1375 11.375 45.4375 11.375H28.5625C25.8625 11.375 23.5 13.7375 23.5 16.4375V21.5H15.0625C12.3625 21.5 10 23.8625 10 26.5625V35H64V26.5625C64 23.8625 61.6375 21.5 58.9375 21.5ZM43.75 21.5H30.25V18.125H43.75V21.5Z" fill="url(#paint0_linear)"/>
<defs>
<linearGradient id="paint0_linear" x1="37" y1="11.375" x2="37" y2="94.5" gradientUnits="userSpaceOnUse">
<stop stop-color="#029BF6"/>
<stop offset="1" stop-color="#26498C"/>
</linearGradient>
</defs>
</svg>
